<svg width="45" height="45" viewBox="0 0 45 45" fill="none" xmlns="http://www.w3.org/2000/svg">
<path d="M43.5938 23.9062V11.25H30.9375" stroke="black" stroke-width="1.5" stroke-linecap="round" stroke-linejoin="round"/>
<path d="M43.5938 11.25L28.7081 26.1356C28.4469 26.397 28.1368 26.6043 27.7955 26.7458C27.4541 26.8872 27.0882 26.96 26.7188 26.96C26.3493 26.96 25.9834 26.8872 25.642 26.7458C25.3007 26.6043 24.9906 26.397 24.7294 26.1356L18.8644 20.2706C18.6032 20.0093 18.2931 19.8019 17.9517 19.6605C17.6104 19.519 17.2445 19.4462 16.875 19.4462C16.5055 19.4462 16.1396 19.519 15.7983 19.6605C15.4569 19.8019 15.1468 20.0093 14.8856 20.2706L1.40625 33.75" stroke="black" stroke-width="1.5" stroke-linecap="round" stroke-linejoin="round"/>
</svg>
