<svg width="48" height="48" viewBox="0 0 48 48" fill="none" xmlns="http://www.w3.org/2000/svg">
<path d="M24 44.2501V9.42408C24 9.42408 19.09 3.97008 2.53603 3.75008C2.40013 3.74837 2.26527 3.77405 2.13951 3.82559C2.01374 3.87713 1.89965 3.95348 1.80403 4.05008C1.60895 4.24611 1.49962 4.51153 1.50003 4.78808V37.5381C1.49783 37.8075 1.60129 38.0671 1.78823 38.2611C1.97517 38.4552 2.2307 38.5682 2.50003 38.5761C19.086 38.8001 24 44.2501 24 44.2501Z" stroke="black" stroke-width="1.5" stroke-linecap="round" stroke-linejoin="round"/>
<path d="M18 22.36C14.5965 21.2152 11.0617 20.5063 7.47998 20.25" stroke="black" stroke-width="1.5" stroke-linecap="round" stroke-linejoin="round"/>
<path d="M18 30.7499C14.5965 29.6051 11.0617 28.8961 7.47998 28.6399" stroke="black" stroke-width="1.5" stroke-linecap="round" stroke-linejoin="round"/>
<path d="M30 22.36C33.4035 21.2152 36.9383 20.5063 40.52 20.25" stroke="black" stroke-width="1.5" stroke-linecap="round" stroke-linejoin="round"/>
<path d="M30 30.7499C33.4035 29.6051 36.9383 28.8961 40.52 28.6399" stroke="black" stroke-width="1.5" stroke-linecap="round" stroke-linejoin="round"/>
<path d="M24 44.2501V9.42408C24 9.42408 28.91 3.97008 45.464 3.75008C45.5999 3.74837 45.7348 3.77405 45.8605 3.82559C45.9863 3.87713 46.1004 3.95348 46.196 4.05008C46.3911 4.24611 46.5004 4.51153 46.5 4.78808V37.5381C46.5022 37.8075 46.3987 38.0671 46.2118 38.2611C46.0249 38.4552 45.7693 38.5682 45.5 38.5761C28.914 38.8001 24 44.2501 24 44.2501Z" stroke="black" stroke-width="1.5" stroke-linecap="round" stroke-linejoin="round"/>
</svg>
