<svg width="47" height="47" viewBox="0 0 47 47" fill="none" xmlns="http://www.w3.org/2000/svg">
<path d="M8.81252 12.7292C8.29314 12.7292 7.79503 12.9356 7.42777 13.3028C7.06051 13.6701 6.85419 14.1682 6.85419 14.6876V32.3126C6.85419 32.832 7.06051 33.3301 7.42777 33.6973C7.79503 34.0646 8.29314 34.2709 8.81252 34.2709H38.1875C38.7069 34.2709 39.205 34.0646 39.5723 33.6973C39.9395 33.3301 40.1459 32.832 40.1459 32.3126V30.3542" stroke="black" stroke-width="1.5" stroke-linecap="round" stroke-linejoin="round"/>
<path d="M44.0625 4.89575H14.6875C13.606 4.89575 12.7292 5.77253 12.7292 6.85409V24.4791C12.7292 25.5606 13.606 26.4374 14.6875 26.4374H44.0625C45.1441 26.4374 46.0209 25.5606 46.0209 24.4791V6.85409C46.0209 5.77253 45.1441 4.89575 44.0625 4.89575Z" stroke="black" stroke-width="1.5" stroke-linecap="round" stroke-linejoin="round"/>
<path d="M2.93752 20.5625C2.41814 20.5625 1.92003 20.7688 1.55277 21.1361C1.18551 21.5033 0.979187 22.0015 0.979187 22.5208V40.1458C0.979187 40.6652 1.18551 41.1633 1.55277 41.5306C1.92003 41.8978 2.41814 42.1042 2.93752 42.1042H32.3125C32.8319 42.1042 33.33 41.8978 33.6973 41.5306C34.0645 41.1633 34.2709 40.6652 34.2709 40.1458V38.1875" stroke="black" stroke-width="1.5" stroke-linecap="round" stroke-linejoin="round"/>
</svg>
