<svg width="35" height="44" viewBox="0 0 35 44" fill="none" xmlns="http://www.w3.org/2000/svg">
<path d="M33.8027 43C33.7897 38.6541 32.0575 34.4899 28.9845 31.4168C25.9114 28.3438 21.7472 26.6116 17.4013 26.5986C13.0554 26.6116 8.89123 28.3438 5.8182 31.4168C2.74517 34.4899 1.013 38.6541 1 43" stroke="black" stroke-width="1.5" stroke-linecap="round" stroke-linejoin="round"/>
<path d="M6.68152 11.7087V14.2278C6.77801 17.1376 6.0234 20.0124 4.51019 22.4997" stroke="black" stroke-width="1.5" stroke-linecap="round" stroke-linejoin="round"/>
<path d="M27.5298 11.7087V14.2278C27.432 17.1378 28.1867 20.0129 29.7011 22.4997" stroke="black" stroke-width="1.5" stroke-linecap="round" stroke-linejoin="round"/>
<path d="M6.71173 12.2619C8.68803 12.2485 10.6387 11.813 12.4331 10.9848C14.2275 10.1565 15.8243 8.95452 17.1166 7.45923C18.4087 8.9548 20.0054 10.157 21.7999 10.9853C23.5943 11.8136 25.5451 12.2488 27.5214 12.2619" stroke="black" stroke-width="1.5" stroke-linecap="round" stroke-linejoin="round"/>
<path d="M17.1055 21.8535C22.8641 21.8535 27.5323 17.1853 27.5323 11.4268C27.5323 5.66822 22.8641 1 17.1055 1C11.347 1 6.67877 5.66822 6.67877 11.4268C6.67877 17.1853 11.347 21.8535 17.1055 21.8535Z" stroke="black" stroke-width="1.5" stroke-linecap="round" stroke-linejoin="round"/>
</svg>
