<?xml version="1.0" encoding="UTF-8"?>
<svg width="132px" height="117px" viewBox="0 0 132 117" version="1.1" xmlns="http://www.w3.org/2000/svg" xmlns:xlink="http://www.w3.org/1999/xlink">
    <title>layers</title>
    <g id="Page-1" stroke="none" stroke-width="1" fill="none" fill-rule="evenodd" stroke-linecap="round" stroke-linejoin="round">
        <g id="Upgrade" transform="translate(-1400.000000, -276.000000)" stroke="#000000" stroke-width="4">
            <g id="layers" transform="translate(1402.000000, 278.000000)">
                <path d="M126,48 L64.6904762,76.7556825 C63.9313974,77.0814392 63.0686026,77.0814392 62.3095238,76.7556825 L1,48" id="Path"></path>
                <path d="M126,66 L64.6904762,94.7556825 C63.9313974,95.0814392 63.0686026,95.0814392 62.3095238,94.7556825 L1,66" id="Path"></path>
                <path d="M126,84 L64.6904762,112.755682 C63.9313974,113.081439 63.0686026,113.081439 62.3095238,112.755682 L1,84" id="Path"></path>
                <path d="M65.1913171,58.7514701 C64.4317021,59.0828433 63.5682979,59.0828433 62.8086829,58.7514701 L1.78346638,32.2268824 C0.699980234,31.7525652 0,30.6823102 0,29.5 C0,28.3176898 0.699980234,27.2474348 1.78346638,26.7731176 L62.8086829,0.248529912 C63.5682979,-0.082843304 64.4317021,-0.082843304 65.1913171,0.248529912 L126.216534,26.7731176 C127.30002,27.2474348 128,28.3176898 128,29.5 C128,30.6823102 127.30002,31.7525652 126.216534,32.2268824 L65.1913171,58.7514701 Z" id="Path"></path>
            </g>
        </g>
    </g>
</svg>