<svg width="45" height="45" viewBox="0 0 45 45" fill="none" xmlns="http://www.w3.org/2000/svg">
<path d="M6.65062 24.9995L1.70437 30.1201C1.51682 30.3174 1.41223 30.5792 1.41223 30.8514C1.41223 31.1236 1.51682 31.3854 1.70437 31.5826L13.0162 43.2901C13.1073 43.386 13.217 43.4624 13.3385 43.5145C13.46 43.5667 13.5909 43.5936 13.7231 43.5936C13.8554 43.5936 13.9862 43.5667 14.1078 43.5145C14.2293 43.4624 14.3389 43.386 14.43 43.2901L19.4569 38.0889" stroke="black" stroke-width="1.5" stroke-linecap="round" stroke-linejoin="round"/>
<path d="M22.9125 11.0962L27.1556 6.70497C27.7179 6.11265 28.0315 5.32705 28.0315 4.51029C28.0315 3.69352 27.7179 2.90792 27.1556 2.3156C26.8819 2.02839 26.5527 1.79974 26.188 1.64352C25.8234 1.48729 25.4308 1.40674 25.034 1.40674C24.6373 1.40674 24.2447 1.48729 23.88 1.64352C23.5153 1.79974 23.1862 2.02839 22.9125 2.3156L10.1868 15.4856C6.59621 19.2018 5.79746 21.8925 6.65058 24.9993L18.6712 37.4381C21.4987 40.365 27 38.4131 31.3968 37.4381C34.0306 36.847 36.6311 36.1166 39.1875 35.25C41.3081 34.5187 43.0818 33.1237 42.9375 30.84C42.9127 30.3068 42.7829 29.7839 42.5554 29.301C42.328 28.8182 42.0074 28.3851 41.6121 28.0266C41.2168 27.668 40.7545 27.3911 40.2519 27.2117C39.7492 27.0323 39.2161 26.954 38.6831 26.9812L32.1206 27.9281L42.7106 16.95C43.2735 16.3576 43.5874 15.5716 43.5874 14.7543C43.5874 13.9371 43.2735 13.1511 42.7106 12.5587C42.4367 12.2718 42.1075 12.0433 41.7429 11.8873C41.3782 11.7312 40.9857 11.6507 40.589 11.6507C40.1924 11.6507 39.7998 11.7312 39.4352 11.8873C39.0705 12.0433 38.7413 12.2718 38.4675 12.5587" stroke="black" stroke-width="1.5" stroke-linecap="round" stroke-linejoin="round"/>
<path d="M35.1713 15.9713L39.8813 11.0963C40.4442 10.5038 40.7581 9.71785 40.7581 8.90063C40.7581 8.08342 40.4442 7.29743 39.8813 6.70501C39.6077 6.41785 39.2787 6.18924 38.9142 6.03304C38.5497 5.87683 38.1572 5.79629 37.7606 5.79629C37.3641 5.79629 36.9716 5.87683 36.6071 6.03304C36.2426 6.18924 35.9135 6.41785 35.64 6.70501L34.2263 8.16938C34.7892 7.57696 35.1031 6.79097 35.1031 5.97376C35.1031 5.15655 34.7892 4.37055 34.2263 3.77813C33.9524 3.49117 33.6232 3.26274 33.2586 3.10666C32.8939 2.95059 32.5014 2.87012 32.1047 2.87012C31.708 2.87012 31.3155 2.95059 30.9508 3.10666C30.5862 3.26274 30.257 3.49117 29.9831 3.77813L27.1556 6.70501" stroke="black" stroke-width="1.5" stroke-linecap="round" stroke-linejoin="round"/>
<path d="M34.2262 8.16943L29.5369 13.0501" stroke="black" stroke-width="1.5" stroke-linecap="round" stroke-linejoin="round"/>
</svg>
