<svg width="150" height="27" viewBox="0 0 150 27" fill="none" xmlns="http://www.w3.org/2000/svg">
<path d="M46.8677 22.4843C48.7242 22.4843 50.3286 21.8126 51.6809 20.4694C53.0332 19.1262 53.7094 17.5279 53.7094 15.6746V5.50105H51.9037V15.6746C51.9037 17.1074 51.4112 18.3222 50.4263 19.3189C49.4414 20.3156 48.2532 20.814 46.8618 20.814C45.4704 20.814 44.2823 20.3156 43.2973 19.3189C42.3124 18.3222 41.8199 17.1074 41.8199 15.6746V5.50105H40.026V15.6746C40.026 17.5201 40.7021 19.1164 42.0545 20.4636C43.4068 21.8107 45.0112 22.4843 46.8677 22.4843ZM62.2363 22.2506V8.7365L72.5546 22.2506H74.1141V5.50105H72.3201V19.0269L61.9901 5.50105H60.4306V22.2506H62.2363ZM92.8537 22.2506V20.5804H82.8872V14.3547H90.6845V12.6845H82.8872V7.18301H92.6075V5.50105H81.0815V22.2506H92.8537ZM110.139 22.2506V20.5804H100.173V14.3547H107.97V12.6845H100.173V7.18301H109.893V5.50105H98.3672V22.2506H110.139ZM122.501 22.2506C124.033 22.2506 125.275 21.799 126.229 20.8957C127.183 19.9924 127.66 18.8478 127.66 17.4617C127.66 16.8933 127.56 16.354 127.361 15.844C127.161 15.3339 126.94 14.9348 126.698 14.6467C126.456 14.3586 126.174 14.0938 125.854 13.8525C125.533 13.6111 125.315 13.4631 125.197 13.4086C125.08 13.3541 124.982 13.3113 124.904 13.2801L125.092 13.1633C125.217 13.1011 125.375 12.9823 125.567 12.8071C125.758 12.6319 125.952 12.4197 126.147 12.1705C126.342 11.9213 126.503 11.5885 126.628 11.1718C126.753 10.7552 126.815 10.3017 126.815 9.81109C126.815 8.59634 126.376 7.57431 125.496 6.745C124.617 5.9157 123.497 5.50105 122.137 5.50105H115.653V22.2506H122.501ZM122.137 12.5443H117.459V7.18296H122.137C123.036 7.18296 123.741 7.42629 124.253 7.91298C124.765 8.39966 125.021 9.03235 125.021 9.81104C125.021 10.6598 124.765 11.3275 124.253 11.8142C123.741 12.3009 123.036 12.5443 122.137 12.5443ZM122.501 20.5803H117.459V14.1211H122.501C123.493 14.1211 124.3 14.4462 124.922 15.0964C125.543 15.7466 125.854 16.535 125.854 17.4616C125.854 18.3727 125.547 19.1203 124.934 19.7043C124.32 20.2883 123.509 20.5803 122.501 20.5803ZM141.228 22.4843C143.628 22.4843 145.668 21.6472 147.349 19.973C149.03 18.2988 149.87 16.2664 149.87 13.8758C149.87 11.4853 149.03 9.45289 147.349 7.77871C145.668 6.10453 143.628 5.26744 141.228 5.26744C138.829 5.26744 136.788 6.10453 135.108 7.77871C133.427 9.45289 132.587 11.4853 132.587 13.8758C132.587 16.2664 133.427 18.2988 135.108 19.973C136.788 21.6472 138.829 22.4843 141.228 22.4843ZM141.228 20.814C139.305 20.814 137.683 20.1482 136.362 18.8166C135.041 17.4851 134.381 15.8381 134.381 13.8758C134.381 11.9135 135.041 10.2666 136.362 8.93507C137.683 7.60351 139.305 6.93773 141.228 6.93773C143.151 6.93773 144.773 7.60351 146.094 8.93507C147.415 10.2666 148.076 11.9135 148.076 13.8758C148.076 15.8381 147.415 17.4851 146.094 18.8166C144.773 20.1482 143.151 20.814 141.228 20.814Z" fill="black"/>
<path d="M0.769866 0L0.89643 0.00112832C0.996363 0.00272488 1.12713 0.00614779 1.28593 0.0122228L1.34679 0.0146268C1.78891 0.0326317 2.27984 0.0650278 2.80767 0.115413C4.31574 0.25937 5.82474 0.518982 7.24138 0.925316C11.4022 2.11875 14.0041 4.33733 14.0557 7.84896L14.0565 7.95576L14.0565 24.9301L14.0725 24.9298C18.986 24.7966 22.044 22.5416 23.7117 18.8022L23.7634 18.6849C24.3294 17.3828 24.6896 15.981 24.8814 14.5642C24.952 14.0426 24.9955 13.548 25.017 13.0908L25.0234 12.941C25.0315 12.7238 25.0335 12.5402 25.0315 12.3948L25.0291 12.2762V0.767263C25.0291 0.343516 25.374 0 25.7993 0C26.2118 0 26.5486 0.323012 26.5686 0.728969L26.5696 0.767263L26.5694 12.2643L26.5709 12.317L26.573 12.4674C26.5762 13.061 26.5326 13.8494 26.408 14.7693C26.1985 16.3168 25.8039 17.8523 25.177 19.2947C23.2363 23.7593 19.4907 26.4706 13.6064 26.4706L13.4309 26.4698L13.3404 26.4685L13.3248 26.4696L13.2863 26.4706L13.2479 26.4696L13.2046 26.4662L13.0835 26.4635C7.56413 26.3122 3.89062 23.7539 1.79474 19.6059L1.72976 19.4758C0.985407 17.9672 0.5032 16.3589 0.228812 14.7518C0.141537 14.2406 0.0812632 13.7619 0.0432246 13.3252L0.0324754 13.1954C0.0115124 12.9285 0.00247674 12.7285 0.000366355 12.5997L0 0.767263C0 0.343721 0.344517 0.000290237 0.769866 0ZM1.54044 1.55985L1.54078 12.585C1.54129 12.6072 1.54236 12.6414 1.54426 12.6869L1.54995 12.8043C1.55448 12.8867 1.56049 12.9773 1.56822 13.0757C1.60172 13.5022 1.65952 13.9795 1.74744 14.4945C1.99855 15.9652 2.43912 17.4347 3.11222 18.7988C4.86099 22.343 7.82739 24.5604 12.382 24.8926L12.5161 24.9017V7.95576C12.5161 5.28607 10.5169 3.50994 7.02942 2.46281L6.81515 2.39993C5.49945 2.02255 4.08101 1.77852 2.66073 1.64294C2.32822 1.6112 2.01158 1.58704 1.71446 1.56945L1.54044 1.55985Z" fill="black"/>
</svg>
