<svg width="508" height="526" viewBox="0 0 508 526" fill="none" xmlns="http://www.w3.org/2000/svg">
<g filter="url(#filter0_d)">
<rect x="34" width="440" height="447" rx="50.5469" fill="white"/>
</g>
<path d="M339.662 109.257C339.662 109.139 339.189 109.376 339.189 109.376C339.189 109.257 339.781 108.784 339.781 108.784C340.017 108.429 340.49 108.429 340.964 108.666C341.673 109.021 342.265 109.967 342.265 110.677C342.265 111.15 341.555 111.978 341.2 112.097C340.964 112.097 341.2 111.505 340.964 111.387C340.254 110.795 339.662 109.967 339.662 109.257Z" fill="white" stroke="black" stroke-width="0.591502" stroke-miterlimit="10" stroke-linejoin="bevel"/>
<path d="M339.309 108.429C339.309 107.956 340.492 107.364 341.202 107.719C341.32 107.719 341.438 107.838 341.438 107.838C342.03 108.193 342.503 108.784 342.503 109.139C342.503 109.257 341.911 109.849 341.911 109.849C341.793 109.849 341.557 108.902 340.728 108.547C339.545 108.074 339.309 108.902 339.309 108.429Z" fill="white" stroke="black" stroke-width="0.591502" stroke-miterlimit="10" stroke-linejoin="bevel"/>
<path d="M339.189 109.849C339.189 109.139 339.781 108.784 340.49 109.139C341.2 109.494 341.792 110.44 341.792 111.15C341.792 111.86 341.2 112.215 340.49 111.86C339.781 111.387 339.189 110.559 339.189 109.849Z" fill="white" stroke="black" stroke-width="0.591502" stroke-miterlimit="10" stroke-linejoin="bevel"/>
<path d="M339.309 108.429C339.309 107.956 339.901 107.956 340.611 108.311C341.32 108.666 341.912 109.376 341.912 109.731C341.912 110.086 341.675 109.376 340.611 108.903C339.428 108.429 339.309 108.903 339.309 108.429Z" fill="white" stroke="black" stroke-width="0.591502" stroke-miterlimit="10" stroke-linejoin="bevel"/>
<path d="M339.309 99.4385C339.309 99.3202 338.836 99.5568 338.836 99.5568C338.836 99.4385 339.428 98.9653 339.428 98.9653C339.664 98.6104 340.138 98.6104 340.611 98.847C341.321 99.2019 341.912 100.148 341.912 100.858C341.912 101.331 341.202 102.159 340.847 102.278C340.611 102.278 340.847 101.686 340.611 101.568C339.901 101.095 339.309 100.148 339.309 99.4385Z" fill="white" stroke="black" stroke-width="0.591502" stroke-miterlimit="10" stroke-linejoin="bevel"/>
<path d="M338.952 98.6103C338.952 98.1371 340.135 97.5456 340.845 97.9005C340.963 97.9005 341.081 98.0188 341.081 98.0188C341.673 98.3737 342.146 98.9652 342.146 99.3201C342.146 99.4384 341.555 100.03 341.555 100.03C341.436 100.03 341.2 99.0835 340.372 98.7286C339.189 98.2554 338.952 99.0835 338.952 98.6103Z" fill="white" stroke="black" stroke-width="0.591502" stroke-miterlimit="10" stroke-linejoin="bevel"/>
<path d="M338.716 100.03C338.716 99.3201 339.308 98.9652 340.017 99.3201C340.727 99.675 341.319 100.621 341.319 101.331C341.319 102.041 340.727 102.396 340.017 102.041C339.308 101.568 338.716 100.74 338.716 100.03Z" fill="white" stroke="black" stroke-width="0.591502" stroke-miterlimit="10" stroke-linejoin="bevel"/>
<path d="M338.952 98.6105C338.952 98.1373 339.543 98.1373 340.253 98.4922C340.963 98.8471 341.555 99.5569 341.555 99.9118C341.555 100.385 341.318 99.5569 340.253 99.0837C339.07 98.6105 338.952 99.0837 338.952 98.6105Z" fill="white" stroke="black" stroke-width="0.591502" stroke-miterlimit="10" stroke-linejoin="bevel"/>
<path d="M320.974 108.902C320.974 108.784 320.501 109.02 320.501 109.02C320.501 108.902 321.093 108.429 321.093 108.429C321.329 108.074 321.802 108.074 322.276 108.311C322.985 108.666 323.577 109.612 323.577 110.322C323.577 110.795 322.867 111.623 322.512 111.741C322.276 111.741 322.512 111.15 322.276 111.032C321.566 110.44 320.974 109.612 320.974 108.902Z" fill="white" stroke="black" stroke-width="0.591502" stroke-miterlimit="10" stroke-linejoin="bevel"/>
<path d="M320.501 108.074C320.501 107.601 321.684 107.009 322.394 107.364C322.512 107.364 322.63 107.483 322.63 107.483C323.222 107.838 323.695 108.429 323.695 108.784C323.695 108.902 323.103 109.494 323.103 109.494C322.985 109.494 322.749 108.547 321.92 108.192C320.737 107.719 320.501 108.429 320.501 108.074Z" fill="white" stroke="black" stroke-width="0.591502" stroke-miterlimit="10" stroke-linejoin="bevel"/>
<path d="M320.381 109.494C320.381 108.784 320.972 108.429 321.682 108.784C322.392 109.139 322.984 110.085 322.984 110.795C322.984 111.505 322.392 111.86 321.682 111.505C320.972 111.032 320.381 110.204 320.381 109.494Z" fill="white" stroke="black" stroke-width="0.591502" stroke-miterlimit="10" stroke-linejoin="bevel"/>
<path d="M320.501 108.074C320.501 107.601 321.093 107.601 321.802 107.956C322.512 108.311 323.104 109.021 323.104 109.375C323.104 109.73 322.867 109.021 321.802 108.547C320.738 108.074 320.501 108.547 320.501 108.074Z" fill="white" stroke="black" stroke-width="0.591502" stroke-miterlimit="10" stroke-linejoin="bevel"/>
<path d="M320.854 99.793C320.854 99.6747 320.381 99.9113 320.381 99.9113C320.381 99.793 320.972 99.3198 320.972 99.3198C321.209 98.9649 321.682 98.9649 322.155 99.2015C322.865 99.5564 323.457 100.503 323.457 101.213C323.457 101.686 322.747 102.514 322.392 102.632C322.155 102.632 322.392 102.041 322.155 101.922C321.446 101.449 320.854 100.503 320.854 99.793Z" fill="white" stroke="black" stroke-width="0.591502" stroke-miterlimit="10" stroke-linejoin="bevel"/>
<path d="M320.501 98.965C320.501 98.4918 321.684 97.9003 322.394 98.2552C322.512 98.2552 322.63 98.3735 322.63 98.3735C323.222 98.7284 323.695 99.3199 323.695 99.6748C323.695 99.7931 323.103 100.385 323.103 100.385C322.985 100.385 322.749 99.4382 321.92 99.0833C320.737 98.6101 320.501 99.4382 320.501 98.965Z" fill="white" stroke="black" stroke-width="0.591502" stroke-miterlimit="10" stroke-linejoin="bevel"/>
<path d="M320.381 100.385C320.381 99.6749 320.972 99.32 321.682 99.6749C322.392 100.03 322.984 100.976 322.984 101.686C322.984 102.396 322.392 102.751 321.682 102.396C320.972 102.041 320.381 101.094 320.381 100.385Z" fill="white" stroke="black" stroke-width="0.591502" stroke-miterlimit="10" stroke-linejoin="bevel"/>
<path d="M320.501 99.0834C320.501 98.6102 321.093 98.6102 321.802 98.9651C322.512 99.32 323.104 100.03 323.104 100.385C323.104 100.74 322.867 100.03 321.802 99.5566C320.738 98.9651 320.501 99.4383 320.501 99.0834Z" fill="white" stroke="black" stroke-width="0.591502" stroke-miterlimit="10" stroke-linejoin="bevel"/>
<path d="M341.793 107.72L340.492 108.429V107.01L341.793 106.418V107.72Z" fill="white" stroke="black" stroke-width="0.591502" stroke-miterlimit="10" stroke-linejoin="bevel"/>
<path d="M320.501 107.72L321.802 108.429V107.01L320.501 106.418V107.72Z" fill="white" stroke="black" stroke-width="0.591502" stroke-miterlimit="10" stroke-linejoin="bevel"/>
<path d="M341.797 97.0725V98.4921L321.804 108.429V107.01L341.797 97.0725Z" fill="white" stroke="black" stroke-width="0.591502" stroke-miterlimit="10" stroke-linejoin="bevel"/>
<path d="M341.794 106.3L340.493 107.01L320.5 97.0723L321.802 96.3625L341.794 106.3Z" fill="white" stroke="black" stroke-width="0.591502" stroke-miterlimit="10" stroke-linejoin="bevel"/>
<path d="M320.501 97.0725V98.4921L340.494 108.429V107.01L320.501 97.0725Z" fill="white" stroke="black" stroke-width="0.591502" stroke-miterlimit="10" stroke-linejoin="bevel"/>
<path d="M320.5 106.3L321.802 107.01L341.794 97.0723L340.493 96.3625L320.5 106.3Z" fill="white" stroke="black" stroke-width="0.591502" stroke-miterlimit="10" stroke-linejoin="bevel"/>
<path d="M331.147 102.396L332.449 101.686V83.1128L331.147 83.8226V102.396Z" fill="white" stroke="black" stroke-width="0.591502" stroke-miterlimit="10" stroke-linejoin="bevel"/>
<path d="M329.844 101.686L331.146 102.396V83.8226L329.844 83.1128V101.686Z" fill="white" stroke="black" stroke-width="0.591502" stroke-miterlimit="10" stroke-linejoin="bevel"/>
<path d="M340.489 107.009L331.144 102.396L321.798 107.009L331.144 102.514L340.489 107.009Z" fill="white" stroke="black" stroke-width="0.591502" stroke-miterlimit="10" stroke-linejoin="bevel"/>
<path d="M330.556 77.0796L327.243 71.1646L326.297 70.6914L317.543 74.3587C317.188 74.477 316.833 75.0685 316.715 75.5417C316.715 76.0149 317.779 76.7247 318.134 76.6064H318.252L325.469 73.5306L328.071 78.1443C328.19 78.3809 329.136 78.8541 329.373 78.8541C329.491 78.8541 329.609 78.8541 329.728 78.8541C329.846 78.8541 329.964 78.7358 330.083 78.6175C330.674 77.9077 330.792 77.4345 330.556 77.0796Z" fill="white" stroke="black" stroke-width="0.591502" stroke-miterlimit="10" stroke-linejoin="bevel"/>
<path d="M351.136 59.5712C351.018 58.0333 349.716 56.2588 348.179 55.549L335.875 50.1071C335.047 49.7522 333.509 50.3437 332.799 50.9352C332.208 51.2901 331.853 51.8817 331.853 52.3549C331.853 52.3549 329.724 62.8836 329.724 63.3568V76.6064C328.896 76.9613 320.969 79.9189 318.485 81.4568C318.13 81.6934 317.775 81.93 317.302 82.4032C317.066 82.6398 316.947 82.8764 316.829 83.113C316.711 83.3496 316.711 83.4679 316.711 83.7045L316.474 84.7692C316.474 85.5973 316.829 86.3071 317.539 86.662L331.616 94.1149C332.208 94.4698 332.918 94.4698 333.509 94.1149C333.509 94.1149 335.165 92.9319 335.757 92.577C337.886 91.394 344.63 88.4365 344.63 88.4365L347.114 87.845C348.415 87.2535 349.007 85.479 348.652 84.1777L349.007 71.9927C349.007 67.9705 349.953 64.8947 351.136 59.5712Z" fill="#E4EDF8" stroke="black" stroke-width="0.591502" stroke-miterlimit="10" stroke-linejoin="bevel"/>
<path d="M348.653 84.7691L345.341 78.8541L344.394 78.3809L335.64 82.0482C335.285 82.1665 334.93 82.758 334.812 83.2312C334.812 83.7044 335.877 84.4142 336.232 84.2959H336.35L343.566 81.2201L346.169 85.8338C346.287 86.0704 347.234 86.5436 347.47 86.5436C347.588 86.5436 347.707 86.5436 347.825 86.5436C347.943 86.5436 348.062 86.4253 348.18 86.307C348.653 85.5972 348.771 85.124 348.653 84.7691Z" fill="white" stroke="black" stroke-width="0.591502" stroke-miterlimit="10" stroke-linejoin="bevel"/>
<path d="M304.406 103.934L264.065 123.099V87.372L304.406 68.2073V103.934Z" fill="white" stroke="black" stroke-width="0.591502" stroke-miterlimit="10" stroke-linejoin="bevel"/>
<path d="M263.947 87.3721H255.784V123.099H263.947V87.3721Z" fill="white" stroke="black" stroke-width="0.591502" stroke-miterlimit="10" stroke-linejoin="bevel"/>
<path d="M307.007 74.0039L264.301 94.2333V87.8451L307.007 67.6157V74.0039Z" fill="white" stroke="black" stroke-width="0.591502" stroke-miterlimit="10" stroke-linejoin="bevel"/>
<path d="M264.42 87.8452H255.784V94.2334H264.42V87.8452Z" fill="white" stroke="black" stroke-width="0.591502" stroke-miterlimit="10" stroke-linejoin="bevel"/>
<path d="M255.784 83.7045V87.8451H264.302L264.42 83.113L255.784 83.7045Z" fill="white" stroke="black" stroke-width="0.591502" stroke-miterlimit="10" stroke-linejoin="bevel"/>
<path d="M249.397 84.0594L327.594 123.335L340.844 116.71L262.647 77.4346L249.397 84.0594Z" fill="white" stroke="black" stroke-width="0.591502" stroke-miterlimit="10" stroke-linejoin="bevel"/>
<path d="M327.597 119.313V123.335H335.759L335.878 118.721L327.597 119.313Z" fill="white" stroke="black" stroke-width="0.591502" stroke-miterlimit="10" stroke-linejoin="bevel"/>
<path d="M327.593 158.944L249.397 119.786V84.0593L327.593 123.335V158.944Z" fill="white" stroke="black" stroke-width="0.591502" stroke-miterlimit="10" stroke-linejoin="bevel"/>
<path d="M339.542 124.282V153.975L373.139 138.359V108.666L339.542 124.282Z" fill="white" stroke="black" stroke-width="0.591502" stroke-miterlimit="10" stroke-linejoin="bevel"/>
<path d="M335.755 123.335H327.593V158.944H335.755L376.214 139.779V104.17L335.755 123.335Z" fill="white" stroke="black" stroke-width="0.591502" stroke-miterlimit="10" stroke-linejoin="bevel"/>
<path d="M252.828 118.485L324.281 154.212V124.518L252.828 88.7915V118.485Z" fill="#FDF5F3" stroke="black" stroke-width="0.591502" stroke-miterlimit="10" stroke-linejoin="bevel"/>
<path d="M336.111 123.808H327.475L248.805 84.4143V90.8025L327.475 130.197H336.111L378.817 109.849V103.461L336.111 123.808Z" fill="white" stroke="black" stroke-width="0.591502" stroke-miterlimit="10" stroke-linejoin="bevel"/>
<path d="M378.817 103.461L364.858 96.481L331.97 112.097L274.24 83.2314L307.009 67.6157L293.05 60.636L260.517 75.4235L259.689 75.8967L248.805 81.3386V84.4144L327.475 123.808H336.111L378.817 103.461Z" fill="white" stroke="black" stroke-width="0.591502" stroke-miterlimit="10" stroke-linejoin="bevel"/>
<path d="M376.925 145.694L373.139 147.587C372.548 147.823 372.548 148.297 373.139 148.651L376.925 150.544C377.162 150.663 377.635 150.781 377.99 150.781V145.576C377.516 145.576 377.162 145.576 376.925 145.694Z" fill="white" stroke="black" stroke-width="0.591502" stroke-miterlimit="10" stroke-linejoin="bevel"/>
<path d="M382.722 147.587L378.936 145.694C378.699 145.576 378.226 145.457 377.871 145.457V150.662C378.226 150.662 378.581 150.544 378.936 150.426L382.722 148.533C383.313 148.415 383.313 147.942 382.722 147.587Z" fill="white" stroke="black" stroke-width="0.591502" stroke-miterlimit="10" stroke-linejoin="bevel"/>
<path d="M377.87 150.781V127.831L384.969 125.82L383.076 148.178L377.87 150.781Z" fill="#FDF5F3" stroke="black" stroke-width="0.591502" stroke-miterlimit="10" stroke-linejoin="bevel"/>
<path d="M370.772 125.82L372.665 148.178L377.87 150.781V129.369L370.772 125.82Z" fill="#FDF5F3" stroke="black" stroke-width="0.591502" stroke-miterlimit="10" stroke-linejoin="bevel"/>
<path d="M384.378 126.529L379.291 129.132C378.936 129.369 378.463 129.369 377.871 129.369C377.398 129.369 376.925 129.25 376.452 129.132L371.365 126.529C370.655 126.174 370.655 125.583 371.365 125.11L376.452 122.507C377.161 122.152 378.463 122.152 379.173 122.507L384.259 125.11C385.206 125.465 385.206 126.174 384.378 126.529Z" fill="#EFDEDA" stroke="black" stroke-width="0.591502" stroke-miterlimit="10" stroke-linejoin="bevel"/>
<path d="M377.752 127.239C377.752 127.239 376.333 109.967 380 104.052C373.612 110.204 377.752 127.239 377.752 127.239Z" fill="white" stroke="black" stroke-width="0.591502" stroke-miterlimit="10" stroke-linejoin="bevel"/>
<path d="M380.354 93.9966C380.354 93.9966 369.471 101.923 377.515 119.786C373.966 106.418 377.515 98.7286 380.354 93.9966Z" fill="white" stroke="black" stroke-width="0.591502" stroke-miterlimit="10" stroke-linejoin="bevel"/>
<path d="M368.055 97.5457C368.055 97.5457 375.863 104.525 376.691 112.688C377.519 120.851 377.4 127.831 377.4 127.831C377.4 127.831 376.691 122.152 376.217 121.324C375.863 120.378 368.055 97.5457 368.055 97.5457Z" fill="white" stroke="black" stroke-width="0.591502" stroke-miterlimit="10" stroke-linejoin="bevel"/>
<path d="M369.238 89.8562C369.238 89.8562 376.691 98.847 377.164 108.903C377.637 118.958 377.164 127.476 377.164 127.476C377.164 127.476 376.691 120.496 376.336 119.431C375.981 118.367 369.238 89.8562 369.238 89.8562Z" fill="white" stroke="black" stroke-width="0.591502" stroke-miterlimit="10" stroke-linejoin="bevel"/>
<path d="M386.981 90.0928C386.981 90.0928 379.055 98.7287 378.227 108.666C377.28 118.721 377.399 127.239 377.399 127.239C377.399 127.239 378.227 120.259 378.582 119.313C378.937 118.248 386.981 90.0928 386.981 90.0928Z" fill="white" stroke="black" stroke-width="0.591502" stroke-miterlimit="10" stroke-linejoin="bevel"/>
<path d="M379.055 127.476C379.055 127.476 381.066 117.893 387.1 114.463C378.7 116.829 379.055 127.476 379.055 127.476Z" fill="white" stroke="black" stroke-width="0.591502" stroke-miterlimit="10" stroke-linejoin="bevel"/>
<path d="M386.272 94.3516C386.272 94.3516 379.766 109.849 378.346 126.766C380.949 113.871 386.272 94.3516 386.272 94.3516Z" fill="white" stroke="black" stroke-width="0.591502" stroke-miterlimit="10" stroke-linejoin="bevel"/>
<path d="M378.819 93.2869C378.819 93.2869 375.743 109.849 377.872 126.648C377.636 113.516 378.819 93.2869 378.819 93.2869Z" fill="white" stroke="black" stroke-width="0.591502" stroke-miterlimit="10" stroke-linejoin="bevel"/>
<path d="M392.542 103.224C392.542 103.224 379.174 105.235 377.755 127.476C381.067 112.215 387.81 106.418 392.542 103.224Z" fill="white" stroke="black" stroke-width="0.591502" stroke-miterlimit="10" stroke-linejoin="bevel"/>
<path d="M368.997 98.6104C368.997 98.6104 375.504 112.333 376.924 127.121C374.321 115.764 368.997 98.6104 368.997 98.6104Z" fill="white" stroke="black" stroke-width="0.591502" stroke-miterlimit="10" stroke-linejoin="bevel"/>
<path d="M362.611 106.418C362.611 106.418 375.979 108.193 377.399 127.712C374.205 114.226 367.343 109.139 362.611 106.418Z" fill="white" stroke="black" stroke-width="0.591502" stroke-miterlimit="10" stroke-linejoin="bevel"/>
<path d="M392.186 105.708C392.186 105.708 378.818 107.483 377.399 127.003C380.711 113.635 387.454 108.548 392.186 105.708Z" fill="white" stroke="black" stroke-width="0.591502" stroke-miterlimit="10" stroke-linejoin="bevel"/>
<path d="M380.947 101.804C380.947 101.804 370.3 109.967 378.699 127.594C374.914 114.344 378.226 106.536 380.947 101.804Z" fill="white" stroke="black" stroke-width="0.591502" stroke-miterlimit="10" stroke-linejoin="bevel"/>
<path d="M271.644 197.51C271.644 197.391 271.171 197.628 271.171 197.628C271.171 197.51 271.644 197.155 271.762 197.036C271.999 196.8 272.354 196.681 272.945 196.918C273.655 197.273 274.247 198.101 274.247 198.811C274.247 199.284 273.537 200.112 273.182 200.112C272.945 200.112 273.182 199.521 272.945 199.402C272.235 199.047 271.644 198.219 271.644 197.51Z" fill="white" stroke="black" stroke-width="0.591502" stroke-miterlimit="10" stroke-linejoin="bevel"/>
<path d="M271.286 196.681C271.286 196.208 272.351 195.735 273.061 196.09C273.179 196.09 273.179 196.208 273.297 196.208C273.889 196.563 274.362 197.036 274.362 197.51C274.362 197.628 273.771 198.219 273.771 198.219C273.652 198.219 273.416 197.391 272.588 196.918C271.523 196.327 271.286 197.155 271.286 196.681Z" fill="white" stroke="black" stroke-width="0.591502" stroke-miterlimit="10" stroke-linejoin="bevel"/>
<path d="M271.051 198.101C271.051 197.391 271.642 197.155 272.352 197.509C273.062 197.864 273.653 198.692 273.653 199.402C273.653 200.112 273.062 200.349 272.352 199.994C271.642 199.639 271.051 198.811 271.051 198.101Z" fill="white" stroke="black" stroke-width="0.591502" stroke-miterlimit="10" stroke-linejoin="bevel"/>
<path d="M271.286 196.8C271.286 196.327 271.878 196.327 272.588 196.681C273.297 197.036 273.889 197.628 273.889 198.101C273.889 198.574 273.652 197.746 272.588 197.273C271.405 196.681 271.286 197.155 271.286 196.8Z" fill="white" stroke="black" stroke-width="0.591502" stroke-miterlimit="10" stroke-linejoin="bevel"/>
<path d="M271.291 188.045C271.291 187.927 270.818 188.164 270.818 188.164C270.818 188.045 271.291 187.691 271.409 187.572C271.646 187.336 272.001 187.217 272.592 187.454C273.302 187.809 273.894 188.637 273.894 189.347C273.894 189.82 273.184 190.648 272.829 190.648C272.592 190.648 272.829 190.057 272.592 189.938C271.764 189.583 271.291 188.755 271.291 188.045Z" fill="white" stroke="black" stroke-width="0.591502" stroke-miterlimit="10" stroke-linejoin="bevel"/>
<path d="M270.818 187.217C270.818 186.744 271.883 186.271 272.592 186.626C272.711 186.626 272.711 186.744 272.829 186.744C273.42 187.099 273.894 187.572 273.894 188.045C273.894 188.164 273.302 188.755 273.302 188.755C273.184 188.755 272.947 187.927 272.119 187.454C271.054 186.862 270.818 187.691 270.818 187.217Z" fill="white" stroke="black" stroke-width="0.591502" stroke-miterlimit="10" stroke-linejoin="bevel"/>
<path d="M270.698 188.519C270.698 187.809 271.289 187.572 271.999 187.927C272.709 188.282 273.3 189.11 273.3 189.82C273.3 190.53 272.709 190.766 271.999 190.412C271.289 190.175 270.698 189.229 270.698 188.519Z" fill="white" stroke="black" stroke-width="0.591502" stroke-miterlimit="10" stroke-linejoin="bevel"/>
<path d="M270.818 187.217C270.818 186.744 271.409 186.744 272.119 187.099C272.829 187.454 273.42 188.046 273.42 188.519C273.42 188.992 273.184 188.164 272.119 187.691C271.054 187.217 270.818 187.691 270.818 187.217Z" fill="white" stroke="black" stroke-width="0.591502" stroke-miterlimit="10" stroke-linejoin="bevel"/>
<path d="M253.426 197.155C253.426 197.036 252.953 197.273 252.953 197.273C252.953 197.155 253.426 196.8 253.544 196.681C253.781 196.445 254.136 196.326 254.727 196.563C255.437 196.918 256.028 197.746 256.028 198.456C256.028 198.929 255.319 199.757 254.964 199.757C254.727 199.757 254.964 199.166 254.727 199.047C254.017 198.692 253.426 197.864 253.426 197.155Z" fill="white" stroke="black" stroke-width="0.591502" stroke-miterlimit="10" stroke-linejoin="bevel"/>
<path d="M253.068 196.326C253.068 195.853 254.133 195.38 254.843 195.735C254.961 195.735 254.961 195.853 255.079 195.853C255.671 196.208 256.144 196.681 256.144 197.155C256.144 197.273 255.553 197.864 255.553 197.864C255.434 197.864 255.198 197.036 254.37 196.563C253.305 195.972 253.068 196.8 253.068 196.326Z" fill="white" stroke="black" stroke-width="0.591502" stroke-miterlimit="10" stroke-linejoin="bevel"/>
<path d="M252.833 197.746C252.833 197.036 253.424 196.8 254.134 197.155C254.844 197.51 255.435 198.338 255.435 199.048C255.435 199.757 254.844 199.994 254.134 199.639C253.424 199.284 252.833 198.456 252.833 197.746Z" fill="white" stroke="black" stroke-width="0.591502" stroke-miterlimit="10" stroke-linejoin="bevel"/>
<path d="M253.068 196.445C253.068 195.972 253.66 195.972 254.37 196.326C255.079 196.681 255.671 197.273 255.671 197.746C255.671 198.219 255.434 197.391 254.37 196.918C253.187 196.326 253.068 196.8 253.068 196.445Z" fill="white" stroke="black" stroke-width="0.591502" stroke-miterlimit="10" stroke-linejoin="bevel"/>
<path d="M253.426 188.4C253.426 188.282 252.953 188.518 252.953 188.518C252.953 188.4 253.426 188.045 253.544 187.927C253.781 187.69 254.136 187.572 254.727 187.809C255.437 188.164 256.029 188.992 256.029 189.701C256.029 190.175 255.319 191.003 254.964 191.003C254.727 191.003 254.964 190.411 254.727 190.293C254.017 189.938 253.426 189.11 253.426 188.4Z" fill="white" stroke="black" stroke-width="0.591502" stroke-miterlimit="10" stroke-linejoin="bevel"/>
<path d="M252.953 187.572C252.953 187.099 254.017 186.626 254.727 186.981C254.846 186.981 254.846 187.099 254.964 187.099C255.555 187.454 256.029 187.927 256.029 188.4C256.029 188.519 255.437 189.11 255.437 189.11C255.319 189.11 255.082 188.282 254.254 187.809C253.308 187.217 252.953 188.045 252.953 187.572Z" fill="white" stroke="black" stroke-width="0.591502" stroke-miterlimit="10" stroke-linejoin="bevel"/>
<path d="M252.833 188.992C252.833 188.282 253.424 188.045 254.134 188.4C254.844 188.755 255.435 189.583 255.435 190.293C255.435 191.003 254.844 191.239 254.134 190.884C253.424 190.53 252.833 189.701 252.833 188.992Z" fill="white" stroke="black" stroke-width="0.591502" stroke-miterlimit="10" stroke-linejoin="bevel"/>
<path d="M252.953 187.572C252.953 187.099 253.544 187.099 254.254 187.454C254.964 187.809 255.555 188.4 255.555 188.873C255.555 189.346 255.319 188.518 254.254 188.045C253.189 187.572 252.953 188.045 252.953 187.572Z" fill="white" stroke="black" stroke-width="0.591502" stroke-miterlimit="10" stroke-linejoin="bevel"/>
<path d="M273.653 196.09L272.352 196.682V195.38L273.653 194.789V196.09Z" fill="white" stroke="black" stroke-width="0.591502" stroke-miterlimit="10" stroke-linejoin="bevel"/>
<path d="M252.953 196.09L254.254 196.682V195.38L252.953 194.789V196.09Z" fill="white" stroke="black" stroke-width="0.591502" stroke-miterlimit="10" stroke-linejoin="bevel"/>
<path d="M273.657 185.679V187.099L254.256 196.681V195.38L273.657 185.679Z" fill="white" stroke="black" stroke-width="0.591502" stroke-miterlimit="10" stroke-linejoin="bevel"/>
<path d="M273.656 194.67L272.355 195.38L252.953 185.68L254.255 185.088L273.656 194.67Z" fill="white" stroke="black" stroke-width="0.591502" stroke-miterlimit="10" stroke-linejoin="bevel"/>
<path d="M252.953 185.679V187.099L272.354 196.681V195.38L252.953 185.679Z" fill="white" stroke="black" stroke-width="0.591502" stroke-miterlimit="10" stroke-linejoin="bevel"/>
<path d="M252.953 194.67L254.255 195.38L273.656 185.68L272.355 185.088L252.953 194.67Z" fill="white" stroke="black" stroke-width="0.591502" stroke-miterlimit="10" stroke-linejoin="bevel"/>
<path d="M263.36 190.885L264.543 190.293V172.193L263.36 172.903V190.885Z" fill="white" stroke="black" stroke-width="0.591502" stroke-miterlimit="10" stroke-linejoin="bevel"/>
<path d="M262.061 190.293L263.363 190.885V172.903L262.061 172.193V190.293Z" fill="white" stroke="black" stroke-width="0.591502" stroke-miterlimit="10" stroke-linejoin="bevel"/>
<path d="M272.351 195.38L263.361 190.885L254.251 195.38L263.361 191.003L272.351 195.38Z" fill="white" stroke="black" stroke-width="0.591502" stroke-miterlimit="10" stroke-linejoin="bevel"/>
<path d="M262.77 166.278L259.576 160.481L258.629 160.008L250.112 163.557C249.757 163.676 249.402 164.267 249.284 164.622C249.284 165.095 250.348 165.805 250.703 165.568H250.821L257.92 162.611L260.404 167.106C260.522 167.343 261.35 167.816 261.705 167.698C261.823 167.698 261.942 167.698 262.06 167.698C262.178 167.698 262.297 167.58 262.415 167.461C262.77 167.106 263.006 166.633 262.77 166.278Z" fill="white" stroke="black" stroke-width="0.591502" stroke-miterlimit="10" stroke-linejoin="bevel"/>
<path d="M282.644 149.361C282.526 147.823 281.224 146.049 279.805 145.457L267.856 140.134C267.028 139.779 265.609 140.37 264.899 140.844C264.307 141.199 263.953 141.79 263.953 142.263C263.953 142.263 261.823 152.437 261.823 152.91V165.687C260.995 166.042 253.424 168.881 250.939 170.419C250.585 170.655 250.23 170.892 249.756 171.365C249.52 171.602 249.402 171.838 249.283 171.957C249.165 172.193 249.165 172.312 249.165 172.548L248.928 173.613C248.928 174.323 249.283 175.033 249.993 175.387L263.598 182.604C264.189 182.959 264.899 182.959 265.49 182.604C265.49 182.604 267.028 181.421 267.62 181.066C269.631 179.883 276.256 177.044 276.256 177.044L278.622 176.452C279.923 175.861 280.396 174.204 280.041 172.903L280.396 161.073C280.633 157.524 281.579 154.567 282.644 149.361Z" fill="#E4EDF8" stroke="black" stroke-width="0.591502" stroke-miterlimit="10" stroke-linejoin="bevel"/>
<path d="M280.274 173.85L277.08 168.053L276.134 167.58L267.616 171.129C267.261 171.247 266.906 171.838 266.788 172.193C266.788 172.667 267.853 173.376 268.208 173.14H268.326L275.424 170.182L277.908 174.678C278.027 174.914 278.855 175.387 279.21 175.269C279.328 175.269 279.446 175.269 279.564 175.269C279.683 175.269 279.801 175.151 279.919 175.033C280.274 174.678 280.511 174.086 280.274 173.85Z" fill="white" stroke="black" stroke-width="0.591502" stroke-miterlimit="10" stroke-linejoin="bevel"/>
<path d="M245.61 224.245L246.912 224.955V194.078L245.61 193.369V224.245Z" fill="white" stroke="black" stroke-width="0.591502" stroke-miterlimit="10" stroke-linejoin="bevel"/>
<path d="M246.914 224.955L268.444 214.19V183.313L246.914 194.079V224.955Z" fill="white" stroke="black" stroke-width="0.591502" stroke-miterlimit="10" stroke-linejoin="bevel"/>
<path d="M209.764 206.382L231.294 195.735V164.859L209.764 175.624V206.382Z" fill="white" stroke="black" stroke-width="0.591502" stroke-miterlimit="10" stroke-linejoin="bevel"/>
<path d="M193.201 197.983L194.62 198.693V167.934L193.201 167.225V197.983Z" fill="white" stroke="black" stroke-width="0.591502" stroke-miterlimit="10" stroke-linejoin="bevel"/>
<path d="M208.46 205.672L209.761 206.382V175.505L208.46 174.796V205.672Z" fill="white" stroke="black" stroke-width="0.591502" stroke-miterlimit="10" stroke-linejoin="bevel"/>
<path d="M194.619 183.668L208.461 190.648V190.293L194.619 183.313V183.668Z" fill="white" stroke="black" stroke-width="0.591502" stroke-miterlimit="10" stroke-linejoin="bevel"/>
<path d="M194.619 189.228L208.461 196.208V195.735L194.619 188.874V189.228Z" fill="white" stroke="black" stroke-width="0.591502" stroke-miterlimit="10" stroke-linejoin="bevel"/>
<path d="M194.619 194.788L208.461 201.768V201.295L194.619 194.434V194.788Z" fill="white" stroke="black" stroke-width="0.591502" stroke-miterlimit="10" stroke-linejoin="bevel"/>
<path d="M194.619 184.378L208.461 191.239V190.885L194.619 183.905V184.378Z" fill="white" stroke="black" stroke-width="0.591502" stroke-miterlimit="10" stroke-linejoin="bevel"/>
<path d="M194.619 189.82L208.461 196.8V196.327L194.619 189.465V189.82Z" fill="white" stroke="black" stroke-width="0.591502" stroke-miterlimit="10" stroke-linejoin="bevel"/>
<path d="M194.619 195.38L208.461 202.36V201.887L194.619 195.025V195.38Z" fill="white" stroke="black" stroke-width="0.591502" stroke-miterlimit="10" stroke-linejoin="bevel"/>
<path d="M181.492 167.58L243.126 198.456L273.884 183.077L212.25 152.2L181.492 167.58Z" fill="white" stroke="black" stroke-width="0.591502" stroke-miterlimit="10" stroke-linejoin="bevel"/>
<path d="M181.492 168.762L243.126 199.639V198.456L181.492 167.579V168.762Z" fill="white" stroke="black" stroke-width="0.591502" stroke-miterlimit="10" stroke-linejoin="bevel"/>
<path d="M243.128 199.639L273.886 184.26V183.077L243.128 198.456V199.639Z" fill="white" stroke="black" stroke-width="0.591502" stroke-miterlimit="10" stroke-linejoin="bevel"/>
<path d="M217.221 170.537L244.43 184.97L245.377 184.615V165.45L217.221 151.372L216.157 151.727L217.221 170.537Z" fill="white" stroke="black" stroke-width="0.591502" stroke-miterlimit="10" stroke-linejoin="bevel"/>
<path d="M216.157 170.892L244.43 184.969V165.805L216.157 151.727V170.892Z" fill="#FDF5F3" stroke="black" stroke-width="0.591502" stroke-miterlimit="10" stroke-linejoin="bevel"/>
<path d="M238.989 184.142C242.301 182.485 234.493 183.668 231.181 182.012C227.868 180.356 230.234 176.452 226.922 178.108C223.61 179.764 223.61 182.485 226.922 184.142C230.234 185.798 235.676 185.798 238.989 184.142Z" fill="white" stroke="black" stroke-width="0.591502" stroke-miterlimit="10" stroke-linejoin="bevel"/>
<path d="M228.935 173.849C229.763 175.032 230.236 176.452 230.236 177.99V181.775C230.236 182.012 230.118 182.249 229.763 182.367C229.053 182.722 227.989 182.722 227.397 182.367C227.042 182.249 226.924 182.012 226.924 181.775V172.548C226.924 172.075 227.634 171.838 227.87 172.311L228.935 173.849Z" fill="white" stroke="black" stroke-width="0.591502" stroke-miterlimit="10" stroke-linejoin="bevel"/>
<path d="M169.072 210.877C169.072 210.759 169.546 210.996 169.427 210.996C169.427 210.877 168.954 210.523 168.836 210.404C168.599 210.168 168.244 210.049 167.771 210.286C167.061 210.641 166.588 211.351 166.588 212.06C166.588 212.415 167.298 213.243 167.535 213.243C167.771 213.243 167.535 212.77 167.771 212.652C168.599 212.297 169.072 211.469 169.072 210.877Z" fill="white" stroke="black" stroke-width="0.591502" stroke-miterlimit="10" stroke-linejoin="bevel"/>
<path d="M169.548 210.049C169.548 209.694 168.483 209.103 167.892 209.458C167.773 209.458 167.773 209.576 167.655 209.576C167.064 209.931 166.709 210.404 166.709 210.759C166.709 210.877 167.3 211.351 167.3 211.351C167.418 211.351 167.537 210.523 168.365 210.168C169.311 209.813 169.548 210.523 169.548 210.049Z" fill="white" stroke="black" stroke-width="0.591502" stroke-miterlimit="10" stroke-linejoin="bevel"/>
<path d="M169.666 211.351C169.666 210.641 169.193 210.404 168.483 210.759C167.773 211.114 167.3 211.824 167.3 212.534C167.3 213.243 167.773 213.48 168.483 213.125C169.074 212.77 169.666 212.06 169.666 211.351Z" fill="white" stroke="black" stroke-width="0.591502" stroke-miterlimit="10" stroke-linejoin="bevel"/>
<path d="M169.546 210.168C169.546 209.813 169.072 209.694 168.363 210.049C167.653 210.404 167.18 210.996 167.18 211.351C167.18 211.705 167.416 211.114 168.363 210.641C169.309 210.049 169.546 210.522 169.546 210.168Z" fill="white" stroke="black" stroke-width="0.591502" stroke-miterlimit="10" stroke-linejoin="bevel"/>
<path d="M169.429 202.005C169.429 201.887 169.902 202.123 169.784 202.123C169.784 202.005 169.311 201.65 169.192 201.532C168.956 201.295 168.601 201.177 168.128 201.414C167.418 201.769 166.945 202.478 166.945 203.188C166.945 203.543 167.654 204.371 167.891 204.371C168.128 204.371 167.891 203.898 168.128 203.78C168.956 203.543 169.429 202.715 169.429 202.005Z" fill="white" stroke="black" stroke-width="0.591502" stroke-miterlimit="10" stroke-linejoin="bevel"/>
<path d="M169.784 201.295C169.784 200.94 168.719 200.349 168.128 200.704C168.009 200.704 168.009 200.822 167.891 200.822C167.299 201.177 166.945 201.65 166.945 202.005C166.945 202.123 167.536 202.596 167.536 202.596C167.654 202.596 167.773 201.768 168.601 201.413C169.665 200.94 169.784 201.65 169.784 201.295Z" fill="white" stroke="black" stroke-width="0.591502" stroke-miterlimit="10" stroke-linejoin="bevel"/>
<path d="M170.022 202.597C170.022 201.887 169.549 201.65 168.839 202.005C168.129 202.36 167.656 203.07 167.656 203.78C167.656 204.489 168.129 204.726 168.839 204.371C169.431 204.016 170.022 203.188 170.022 202.597Z" fill="white" stroke="black" stroke-width="0.591502" stroke-miterlimit="10" stroke-linejoin="bevel"/>
<path d="M169.782 201.295C169.782 200.941 169.309 200.822 168.599 201.177C167.889 201.532 167.416 202.124 167.416 202.478C167.416 202.833 167.653 202.242 168.599 201.769C169.664 201.295 169.782 201.769 169.782 201.295Z" fill="white" stroke="black" stroke-width="0.591502" stroke-miterlimit="10" stroke-linejoin="bevel"/>
<path d="M185.991 210.523C185.991 210.404 186.464 210.641 186.346 210.641C186.346 210.523 185.873 210.168 185.754 210.05C185.518 209.813 185.163 209.695 184.69 209.931C183.98 210.286 183.507 210.996 183.507 211.706C183.507 212.061 184.216 212.889 184.453 212.889C184.69 212.889 184.453 212.416 184.69 212.297C185.518 211.942 185.991 211.114 185.991 210.523Z" fill="white" stroke="black" stroke-width="0.591502" stroke-miterlimit="10" stroke-linejoin="bevel"/>
<path d="M186.346 209.813C186.346 209.458 185.281 208.866 184.69 209.221C184.571 209.221 184.571 209.34 184.453 209.34C183.861 209.694 183.507 210.168 183.507 210.523C183.507 210.641 184.098 211.114 184.098 211.114C184.216 211.114 184.335 210.286 185.163 209.931C186.109 209.458 186.346 210.168 186.346 209.813Z" fill="white" stroke="black" stroke-width="0.591502" stroke-miterlimit="10" stroke-linejoin="bevel"/>
<path d="M186.464 210.996C186.464 210.286 185.991 210.049 185.281 210.404C184.571 210.759 184.098 211.469 184.098 212.179C184.098 212.889 184.571 213.125 185.281 212.77C185.991 212.534 186.464 211.706 186.464 210.996Z" fill="white" stroke="black" stroke-width="0.591502" stroke-miterlimit="10" stroke-linejoin="bevel"/>
<path d="M186.344 209.813C186.344 209.458 185.871 209.34 185.161 209.695C184.451 210.049 183.978 210.641 183.978 210.996C183.978 211.351 184.215 210.759 185.161 210.286C186.226 209.813 186.344 210.168 186.344 209.813Z" fill="white" stroke="black" stroke-width="0.591502" stroke-miterlimit="10" stroke-linejoin="bevel"/>
<path d="M185.991 202.36C185.991 202.242 186.464 202.478 186.346 202.478C186.346 202.36 185.873 202.005 185.754 201.887C185.518 201.65 185.163 201.532 184.69 201.768C183.98 202.123 183.507 202.833 183.507 203.543C183.507 203.898 184.216 204.726 184.453 204.726C184.69 204.726 184.453 204.253 184.69 204.134C185.518 203.779 185.991 203.07 185.991 202.36Z" fill="white" stroke="black" stroke-width="0.591502" stroke-miterlimit="10" stroke-linejoin="bevel"/>
<path d="M186.346 201.65C186.346 201.295 185.281 200.704 184.69 201.059C184.571 201.059 184.571 201.177 184.453 201.177C183.861 201.532 183.507 202.005 183.507 202.36C183.507 202.478 184.098 202.951 184.098 202.951C184.216 202.951 184.335 202.123 185.163 201.768C186.109 201.295 186.346 202.005 186.346 201.65Z" fill="white" stroke="black" stroke-width="0.591502" stroke-miterlimit="10" stroke-linejoin="bevel"/>
<path d="M186.584 202.951C186.584 202.242 186.111 202.005 185.401 202.36C184.691 202.715 184.218 203.425 184.218 204.134C184.218 204.844 184.691 205.081 185.401 204.726C185.993 204.371 186.584 203.543 186.584 202.951Z" fill="white" stroke="black" stroke-width="0.591502" stroke-miterlimit="10" stroke-linejoin="bevel"/>
<path d="M186.344 201.65C186.344 201.295 185.871 201.177 185.161 201.532C184.451 201.887 183.978 202.478 183.978 202.833C183.978 203.188 184.215 202.596 185.161 202.123C186.226 201.65 186.344 202.005 186.344 201.65Z" fill="white" stroke="black" stroke-width="0.591502" stroke-miterlimit="10" stroke-linejoin="bevel"/>
<path d="M167.298 209.458L168.481 210.049V208.866L167.298 208.275V209.458Z" fill="white" stroke="black" stroke-width="0.591502" stroke-miterlimit="10" stroke-linejoin="bevel"/>
<path d="M186.345 209.458L185.162 210.049V208.866L186.345 208.275V209.458Z" fill="white" stroke="black" stroke-width="0.591502" stroke-miterlimit="10" stroke-linejoin="bevel"/>
<path d="M167.297 199.875V201.177L185.16 210.049V208.866L167.297 199.875Z" fill="white" stroke="black" stroke-width="0.591502" stroke-miterlimit="10" stroke-linejoin="bevel"/>
<path d="M167.297 208.275L168.48 208.866L186.343 199.875L185.16 199.284L167.297 208.275Z" fill="white" stroke="black" stroke-width="0.591502" stroke-miterlimit="10" stroke-linejoin="bevel"/>
<path d="M186.343 199.875V201.177L168.48 210.049V208.866L186.343 199.875Z" fill="white" stroke="black" stroke-width="0.591502" stroke-miterlimit="10" stroke-linejoin="bevel"/>
<path d="M186.343 208.275L185.16 208.866L167.297 199.875L168.48 199.284L186.343 208.275Z" fill="white" stroke="black" stroke-width="0.591502" stroke-miterlimit="10" stroke-linejoin="bevel"/>
<path d="M176.882 204.726L175.58 204.134V187.336L176.882 188.045V204.726Z" fill="white" stroke="black" stroke-width="0.591502" stroke-miterlimit="10" stroke-linejoin="bevel"/>
<path d="M178.062 204.134L176.879 204.726V188.045L178.062 187.336V204.134Z" fill="white" stroke="black" stroke-width="0.591502" stroke-miterlimit="10" stroke-linejoin="bevel"/>
<path d="M168.482 208.866L176.882 204.726L185.163 208.866L176.882 204.844L168.482 208.866Z" fill="white" stroke="black" stroke-width="0.591502" stroke-miterlimit="10" stroke-linejoin="bevel"/>
<path d="M189.068 179.528L181.26 176.216L180.432 176.57L177.474 181.894C177.356 182.131 177.474 182.722 177.829 182.959C177.947 183.077 178.066 183.195 178.184 183.195C178.302 183.195 178.421 183.195 178.421 183.195C178.657 183.314 179.485 182.84 179.604 182.604L181.97 178.463L188.476 181.184H188.594C188.949 181.302 189.896 180.711 189.896 180.238C189.659 180.119 189.423 179.646 189.068 179.528Z" fill="white" stroke="black" stroke-width="0.591502" stroke-miterlimit="10" stroke-linejoin="bevel"/>
<path d="M189.776 187.809C189.776 187.691 189.776 187.454 189.657 187.336C189.539 187.099 189.421 186.981 189.302 186.744C188.947 186.389 188.593 186.034 188.238 185.916C185.99 184.497 178.892 181.894 178.182 181.539V169.709C178.182 169.236 176.289 159.772 176.289 159.772C176.289 159.417 175.934 158.825 175.461 158.47C174.87 157.997 173.45 157.406 172.74 157.761L161.738 162.729C160.319 163.321 159.136 164.977 159.017 166.397C160.082 171.129 160.91 173.968 160.91 177.398L161.265 188.282C160.91 189.465 161.502 191.003 162.566 191.595L164.814 192.186C164.814 192.186 170.966 194.789 172.859 195.972C173.332 196.327 174.87 197.391 174.87 197.391C175.461 197.628 176.053 197.628 176.526 197.391L189.184 190.766C189.776 190.412 190.13 189.82 190.13 189.11L189.776 187.809Z" fill="#E4EDF8" stroke="black" stroke-width="0.591502" stroke-miterlimit="10" stroke-linejoin="bevel"/>
<path d="M172.861 186.389L165.053 183.077L164.225 183.432L161.267 188.755C161.149 188.992 161.267 189.583 161.622 189.82C161.741 189.938 161.859 190.057 161.977 190.057C162.095 190.057 162.214 190.057 162.214 190.057C162.45 190.175 163.278 189.702 163.397 189.465L165.763 185.325L172.269 188.046H172.388C172.743 188.164 173.689 187.572 173.689 187.099C173.452 187.099 173.216 186.626 172.861 186.389Z" fill="white" stroke="black" stroke-width="0.591502" stroke-miterlimit="10" stroke-linejoin="bevel"/>
<path d="M183.149 198.574H178.181V229.806C178.062 230.16 178.299 230.515 178.89 230.87C179.837 231.343 181.493 231.343 182.439 230.87C182.913 230.634 183.149 230.279 183.149 229.924V198.574Z" fill="white" stroke="black" stroke-width="0.591502" stroke-miterlimit="10" stroke-linejoin="bevel"/>
<path d="M228.341 192.186L186.581 213.125V211.942L228.341 190.885V192.186Z" fill="white" stroke="black" stroke-width="0.591502" stroke-miterlimit="10" stroke-linejoin="bevel"/>
<path d="M228.342 190.885L186.582 211.942L160.911 198.693L202.671 177.753L228.342 190.885Z" fill="white" stroke="black" stroke-width="0.591502" stroke-miterlimit="10" stroke-linejoin="bevel"/>
<path d="M160.911 199.994V198.693L186.582 211.942V213.125L160.911 199.994Z" fill="white" stroke="black" stroke-width="0.591502" stroke-miterlimit="10" stroke-linejoin="bevel"/>
<path d="M210.004 237.495C210.595 237.14 211.187 236.431 211.187 235.839C211.187 235.721 211.542 235.957 211.542 235.957C211.542 235.839 211.069 235.484 211.069 235.366C210.832 235.129 210.477 235.011 210.004 235.248C209.412 235.603 208.821 236.312 208.821 236.904" fill="white"/>
<path d="M210.004 237.495C210.595 237.14 211.187 236.431 211.187 235.839C211.187 235.721 211.542 235.957 211.542 235.957C211.542 235.839 211.069 235.484 211.069 235.366C210.832 235.129 210.477 235.011 210.004 235.248C209.412 235.603 208.821 236.312 208.821 236.904" stroke="black" stroke-width="0.591502" stroke-miterlimit="10" stroke-linejoin="bevel"/>
<path d="M211.546 235.011C211.546 234.656 210.599 234.183 209.889 234.419C209.771 234.419 209.771 234.537 209.653 234.537C209.179 234.892 208.706 235.366 208.706 235.602C208.706 235.72 209.18 236.194 209.298 236.194C209.416 236.194 209.534 235.366 210.362 235.011C211.309 234.656 211.546 235.366 211.546 235.011Z" fill="white" stroke="black" stroke-width="0.591502" stroke-miterlimit="10" stroke-linejoin="bevel"/>
<path d="M210.479 237.968C211.071 237.613 211.662 236.904 211.662 236.312C211.662 235.721 211.189 235.484 210.479 235.721C209.888 236.075 209.296 236.785 209.296 237.377" fill="white"/>
<path d="M210.479 237.968C211.071 237.613 211.662 236.904 211.662 236.312C211.662 235.721 211.189 235.484 210.479 235.721C209.888 236.075 209.296 236.785 209.296 237.377" stroke="black" stroke-width="0.591502" stroke-miterlimit="10" stroke-linejoin="bevel"/>
<path d="M211.542 235.011C211.542 234.656 211.069 234.538 210.359 234.893C209.768 235.247 209.176 235.721 209.176 236.194C209.176 236.549 209.413 235.957 210.359 235.484C211.306 235.011 211.542 235.484 211.542 235.011Z" fill="white" stroke="black" stroke-width="0.591502" stroke-miterlimit="10" stroke-linejoin="bevel"/>
<path d="M211.543 227.321C211.543 227.203 211.898 227.439 211.898 227.439C211.898 227.321 211.424 226.966 211.424 226.848C211.188 226.611 210.833 226.493 210.36 226.73C209.768 227.084 209.177 227.794 209.177 228.386C209.177 228.741 209.886 229.569 210.123 229.569C210.36 229.569 210.123 229.096 210.36 228.977C210.951 228.622 211.543 227.913 211.543 227.321Z" fill="white" stroke="black" stroke-width="0.591502" stroke-miterlimit="10" stroke-linejoin="bevel"/>
<path d="M211.78 226.611C211.78 226.257 210.834 225.783 210.124 226.02C210.006 226.02 210.006 226.138 209.888 226.138C209.414 226.493 208.941 226.966 208.941 227.203C208.941 227.321 209.414 227.794 209.533 227.794C209.651 227.794 209.769 226.966 210.597 226.611C211.662 226.257 211.78 226.966 211.78 226.611Z" fill="white" stroke="black" stroke-width="0.591502" stroke-miterlimit="10" stroke-linejoin="bevel"/>
<path d="M212.019 227.794C212.019 227.203 211.545 226.966 210.836 227.203C210.244 227.558 209.653 228.267 209.653 228.859C209.653 229.45 210.126 229.687 210.836 229.45C211.427 229.214 212.019 228.386 212.019 227.794Z" fill="white" stroke="black" stroke-width="0.591502" stroke-miterlimit="10" stroke-linejoin="bevel"/>
<path d="M211.778 226.611C211.778 226.257 211.305 226.138 210.595 226.493C210.004 226.848 209.412 227.321 209.412 227.794C209.412 228.149 209.649 227.558 210.595 227.085C211.66 226.611 211.778 226.966 211.778 226.611Z" fill="white" stroke="black" stroke-width="0.591502" stroke-miterlimit="10" stroke-linejoin="bevel"/>
<path d="M226.214 237.14C226.805 236.785 227.397 236.075 227.397 235.484C227.397 235.366 227.752 235.602 227.752 235.602C227.752 235.484 227.278 235.129 227.278 235.011C227.042 234.774 226.687 234.656 226.214 234.892C225.622 235.247 225.031 235.957 225.031 236.549" fill="white"/>
<path d="M226.214 237.14C226.805 236.785 227.397 236.075 227.397 235.484C227.397 235.366 227.752 235.602 227.752 235.602C227.752 235.484 227.278 235.129 227.278 235.011C227.042 234.774 226.687 234.656 226.214 234.892C225.622 235.247 225.031 235.957 225.031 236.549" stroke="black" stroke-width="0.591502" stroke-miterlimit="10" stroke-linejoin="bevel"/>
<path d="M227.749 234.774C227.749 234.419 226.803 233.946 226.093 234.183C225.975 234.183 225.975 234.301 225.857 234.301C225.383 234.656 224.91 235.129 224.91 235.366C224.91 235.484 225.383 235.957 225.502 235.957C225.62 235.957 225.738 235.129 226.566 234.774C227.513 234.419 227.749 235.129 227.749 234.774Z" fill="white" stroke="black" stroke-width="0.591502" stroke-miterlimit="10" stroke-linejoin="bevel"/>
<path d="M226.686 237.613C227.278 237.258 227.869 236.549 227.869 235.957C227.869 235.366 227.396 235.129 226.686 235.366C226.095 235.72 225.503 236.43 225.503 237.022" fill="white"/>
<path d="M226.686 237.613C227.278 237.258 227.869 236.549 227.869 235.957C227.869 235.366 227.396 235.129 226.686 235.366C226.095 235.72 225.503 236.43 225.503 237.022" stroke="black" stroke-width="0.591502" stroke-miterlimit="10" stroke-linejoin="bevel"/>
<path d="M227.749 234.774C227.749 234.419 227.276 234.301 226.566 234.656C225.974 235.011 225.383 235.484 225.383 235.957C225.383 236.312 225.62 235.721 226.566 235.247C227.512 234.774 227.749 235.129 227.749 234.774Z" fill="white" stroke="black" stroke-width="0.591502" stroke-miterlimit="10" stroke-linejoin="bevel"/>
<path d="M227.399 227.558C227.399 227.44 227.754 227.676 227.754 227.676C227.754 227.558 227.281 227.203 227.281 227.085C227.044 226.848 226.69 226.73 226.216 226.966C225.625 227.321 225.033 228.031 225.033 228.623C225.033 228.977 225.743 229.806 225.98 229.806C226.216 229.806 225.98 229.332 226.216 229.214C226.926 228.977 227.399 228.268 227.399 227.558Z" fill="white" stroke="black" stroke-width="0.591502" stroke-miterlimit="10" stroke-linejoin="bevel"/>
<path d="M227.752 226.848C227.752 226.493 226.806 226.02 226.096 226.257C225.978 226.257 225.978 226.375 225.86 226.375C225.386 226.73 224.913 227.203 224.913 227.44C224.913 227.558 225.386 228.031 225.505 228.031C225.623 228.031 225.741 227.203 226.569 226.848C227.516 226.611 227.752 227.321 227.752 226.848Z" fill="white" stroke="black" stroke-width="0.591502" stroke-miterlimit="10" stroke-linejoin="bevel"/>
<path d="M227.871 228.149C227.871 227.558 227.397 227.321 226.688 227.558C226.096 227.913 225.505 228.622 225.505 229.214C225.505 229.805 225.978 230.042 226.688 229.805C227.397 229.451 227.871 228.741 227.871 228.149Z" fill="white" stroke="black" stroke-width="0.591502" stroke-miterlimit="10" stroke-linejoin="bevel"/>
<path d="M227.751 226.966C227.751 226.611 227.277 226.493 226.568 226.848C225.976 227.203 225.385 227.676 225.385 228.149C225.385 228.504 225.621 227.913 226.568 227.44C227.632 226.848 227.751 227.321 227.751 226.966Z" fill="white" stroke="black" stroke-width="0.591502" stroke-miterlimit="10" stroke-linejoin="bevel"/>
<path d="M209.414 234.419L210.479 235.011V233.828L209.414 233.236V234.419Z" fill="white" stroke="black" stroke-width="0.591502" stroke-miterlimit="10" stroke-linejoin="bevel"/>
<path d="M227.752 234.419L226.569 235.011V233.828L227.752 233.236V234.419Z" fill="white" stroke="black" stroke-width="0.591502" stroke-miterlimit="10" stroke-linejoin="bevel"/>
<path d="M209.415 225.192V226.375L226.569 235.011V233.828L209.415 225.192Z" fill="white" stroke="black" stroke-width="0.591502" stroke-miterlimit="10" stroke-linejoin="bevel"/>
<path d="M209.416 233.236L210.48 233.828L227.752 225.192L226.569 224.6L209.416 233.236Z" fill="white" stroke="black" stroke-width="0.591502" stroke-miterlimit="10" stroke-linejoin="bevel"/>
<path d="M227.75 225.192V226.375L210.478 235.011V233.828L227.75 225.192Z" fill="white" stroke="black" stroke-width="0.591502" stroke-miterlimit="10" stroke-linejoin="bevel"/>
<path d="M227.752 233.236L226.569 233.828L209.416 225.192L210.48 224.6L227.752 233.236Z" fill="white" stroke="black" stroke-width="0.591502" stroke-miterlimit="10" stroke-linejoin="bevel"/>
<path d="M218.522 229.805L217.457 229.214V213.243L218.522 213.717V229.805Z" fill="white" stroke="black" stroke-width="0.591502" stroke-miterlimit="10" stroke-linejoin="bevel"/>
<path d="M219.709 229.214L218.526 229.805V213.717L219.709 213.243V229.214Z" fill="white" stroke="black" stroke-width="0.591502" stroke-miterlimit="10" stroke-linejoin="bevel"/>
<path d="M234.612 190.885C234.257 190.412 232.483 189.702 231.536 190.057L220.771 194.552C219.351 195.144 218.168 196.681 218.168 197.983L216.394 207.447C215.802 207.447 215.211 207.565 214.737 207.802L204.919 211.942C204.8 211.942 204.682 212.061 204.682 212.061C204.682 212.061 204.564 212.06 204.564 212.179L204.445 212.297C203.144 213.125 203.381 215.61 204.8 216.438L206.811 217.147L216.749 223.417L232.483 216.911L232.601 215.255L232.956 202.951L235.203 191.949C234.967 191.476 234.849 191.121 234.612 190.885Z" fill="#E4EDF8" stroke="black" stroke-width="0.591502" stroke-miterlimit="10" stroke-linejoin="bevel"/>
<path d="M216.75 221.051L213.91 213.007L206.339 208.63C205.984 208.393 204.92 208.63 204.92 208.985C204.92 208.985 204.92 209.103 204.92 209.221C204.92 209.576 205.156 210.049 205.511 210.286L212.254 214.19L214.857 221.288C214.975 221.524 215.212 221.879 215.448 221.998C215.567 222.116 215.685 222.116 215.803 222.116C215.803 222.116 215.922 222.116 216.04 222.116C216.158 221.998 216.395 221.879 216.631 221.879C216.75 221.761 216.986 221.524 216.75 221.051Z" fill="white" stroke="black" stroke-width="0.591502" stroke-miterlimit="10" stroke-linejoin="bevel"/>
<path d="M210.479 233.828L218.524 229.806L226.568 233.828L218.524 229.924L210.479 233.828Z" fill="white" stroke="black" stroke-width="0.591502" stroke-miterlimit="10" stroke-linejoin="bevel"/>
<path d="M190.133 102.869L187.057 101.568L184.691 76.3699L187.767 77.9078L190.133 102.869Z" fill="white" stroke="black" stroke-width="0.591502" stroke-miterlimit="10" stroke-linejoin="bevel"/>
<path d="M207.287 113.753L188.004 101.923V96.3625L207.287 105.945V113.753Z" fill="white" stroke="black" stroke-width="0.591502" stroke-miterlimit="10" stroke-linejoin="bevel"/>
<path d="M207.286 105.945L189.422 97.0723L189.067 93.6416C196.047 96.4808 202.435 100.148 207.167 103.461V105.945H207.286Z" fill="white" stroke="black" stroke-width="0.591502" stroke-miterlimit="10" stroke-linejoin="bevel"/>
<path d="M146.714 135.638L128.85 126.766L127.194 107.483L187.764 77.9078L184.688 76.3699L124 105.945L126.484 133.272L127.431 133.746L146.714 143.328L207.284 113.753V105.945L146.714 135.638Z" fill="white" stroke="black" stroke-width="0.591502" stroke-miterlimit="10" stroke-linejoin="bevel"/>
<path d="M194.27 95.8891C193.56 90.5656 192.495 85.1238 189.893 78.9722L187.763 77.9075C180.547 79.9186 139.142 100.739 127.193 107.483L128.495 123.217L128.85 126.647L146.713 135.52L207.283 105.945V103.342L194.27 95.8891Z" fill="#FDF5F3" stroke="black" stroke-width="0.591502" stroke-miterlimit="10" stroke-linejoin="bevel"/>
<path d="M209.055 123.217C208.227 123.572 208.227 124.281 209.055 124.755C209.883 125.11 211.185 125.11 212.013 124.755C212.841 124.4 212.841 123.69 212.013 123.217C211.185 122.744 209.883 122.744 209.055 123.217Z" fill="white" stroke="black" stroke-width="0.591502" stroke-miterlimit="10" stroke-linejoin="bevel"/>
<path d="M208.347 123.927V136.111C208.347 136.348 208.584 136.703 208.939 136.821C209.767 137.176 211.068 137.176 211.896 136.821C212.251 136.585 212.488 136.348 212.488 136.111V123.927H208.347Z" fill="white" stroke="black" stroke-width="0.591502" stroke-miterlimit="10" stroke-linejoin="bevel"/>
<path d="M185.158 134.81C184.33 135.165 184.33 135.875 185.158 136.348C185.986 136.703 187.288 136.703 188.116 136.348C188.944 135.993 188.944 135.283 188.116 134.81C187.288 134.455 185.986 134.455 185.158 134.81Z" fill="white" stroke="black" stroke-width="0.591502" stroke-miterlimit="10" stroke-linejoin="bevel"/>
<path d="M184.565 135.638V147.823C184.565 148.06 184.802 148.415 185.156 148.533C185.985 148.888 187.286 148.888 188.114 148.533C188.469 148.296 188.705 148.06 188.705 147.823V135.638H184.565Z" fill="white" stroke="black" stroke-width="0.591502" stroke-miterlimit="10" stroke-linejoin="bevel"/>
<path d="M223.131 115.527C230.348 119.194 223.96 128.185 208.699 135.757C193.556 143.446 175.338 146.64 168.122 143.091C160.905 139.424 167.294 130.433 182.554 122.862C197.697 115.172 215.915 111.978 223.131 115.527Z" fill="#E4EDF8" stroke="black" stroke-width="0.591502" stroke-miterlimit="10" stroke-linejoin="bevel"/>
<rect x="116" y="268" width="275" height="60" fill="black"/>
<path d="M240.603 303H242.1V298.171H244.804C244.913 298.171 245.016 298.171 245.118 298.165L247.726 303H249.465L246.67 297.893C248.245 297.356 248.982 296.07 248.982 294.428C248.982 292.242 247.678 290.636 244.78 290.636H240.603V303ZM242.1 296.818V291.965H244.732C246.736 291.965 247.509 292.943 247.509 294.428C247.509 295.913 246.736 296.818 244.756 296.818H242.1Z" fill="white"/>
<path d="M255.072 303.193C256.955 303.193 258.332 302.252 258.766 300.851L257.39 300.465C257.028 301.431 256.189 301.913 255.072 301.913C253.399 301.913 252.246 300.833 252.18 298.847H258.911V298.243C258.911 294.79 256.859 293.607 254.927 293.607C252.415 293.607 250.749 295.587 250.749 298.436C250.749 301.286 252.391 303.193 255.072 303.193ZM252.18 297.615C252.277 296.172 253.297 294.886 254.927 294.886C256.472 294.886 257.462 296.046 257.462 297.615H252.18Z" fill="white"/>
<path d="M262.503 297.422C262.503 295.804 263.505 294.886 264.87 294.886C266.192 294.886 266.995 295.75 266.995 297.205V303H268.419V297.108C268.419 294.742 267.158 293.607 265.28 293.607C263.88 293.607 263.01 294.234 262.576 295.176H262.455V293.727H261.078V303H262.503V297.422Z" fill="white"/>
<path d="M275.055 293.727H273.075V291.506H271.651V293.727H270.25V294.935H271.651V300.73C271.651 302.348 272.955 303.121 274.162 303.121C274.693 303.121 275.031 303.024 275.224 302.952L274.935 301.672C274.814 301.696 274.621 301.744 274.307 301.744C273.679 301.744 273.075 301.551 273.075 300.344V294.935H275.055V293.727Z" fill="white"/>
<rect x="116" y="340" width="275" height="60" stroke="black"/>
<path d="M239.503 377H243.97C246.892 377 248.099 375.575 248.099 373.716C248.099 371.76 246.747 370.698 245.612 370.625V370.504C246.675 370.215 247.616 369.514 247.616 367.921C247.616 366.109 246.409 364.636 243.825 364.636H239.503V377ZM241 375.672V371.374H244.042C245.66 371.374 246.675 372.46 246.675 373.716C246.675 374.803 245.926 375.672 243.97 375.672H241ZM241 370.07V365.965H243.825C245.467 365.965 246.192 366.834 246.192 367.921C246.192 369.225 245.129 370.07 243.777 370.07H241Z" fill="black"/>
<path d="M255.997 373.209C255.997 374.948 254.669 375.744 253.607 375.744C252.424 375.744 251.578 374.875 251.578 373.523V367.727H250.154V373.619C250.154 375.986 251.409 377.121 253.148 377.121C254.549 377.121 255.466 376.372 255.901 375.431H255.997V377H257.422V367.727H255.997V373.209Z" fill="black"/>
<path d="M260.737 380.453C262.023 380.453 262.934 379.771 263.465 378.352L267.414 367.752L265.856 367.727L263.296 375.117H263.2L260.64 367.727H259.095L262.524 377.048L262.258 377.773C261.751 379.161 261.099 379.294 260.061 379.029L259.698 380.284C259.843 380.357 260.254 380.453 260.737 380.453Z" fill="black"/>
<defs>
<filter id="filter0_d" x="0.30204" y="0" width="507.396" height="525.629" filterUnits="userSpaceOnUse" color-interpolation-filters="sRGB">
<feFlood flood-opacity="0" result="BackgroundImageFix"/>
<feColorMatrix in="SourceAlpha" type="matrix" values="0 0 0 0 0 0 0 0 0 0 0 0 0 0 0 0 0 0 127 0"/>
<feOffset dy="44.9306"/>
<feGaussianBlur stdDeviation="16.849"/>
<feColorMatrix type="matrix" values="0 0 0 0 0 0 0 0 0 0 0 0 0 0 0 0 0 0 0.03 0"/>
<feBlend mode="normal" in2="BackgroundImageFix" result="effect1_dropShadow"/>
<feBlend mode="normal" in="SourceGraphic" in2="effect1_dropShadow" result="shape"/>
</filter>
</defs>
</svg>
