<?xml version="1.0" encoding="UTF-8"?>
<svg width="112px" height="117px" viewBox="0 0 112 117" version="1.1" xmlns="http://www.w3.org/2000/svg" xmlns:xlink="http://www.w3.org/1999/xlink">
    <title>customize</title>
    <g id="Page-1" stroke="none" stroke-width="1" fill="none" fill-rule="evenodd" stroke-linecap="round" stroke-linejoin="round">
        <g id="Upgrade" transform="translate(-1329.000000, -63.000000)" stroke="#000000" stroke-width="4">
            <g id="customize" transform="translate(1331.000000, 65.000000)">
                <path d="M44.5889584,81 L104.911102,20.5518154 C107.822643,17.2453774 108.758186,12.628731 107.365321,8.44092224 C105.972456,4.25311346 102.462792,1.13037008 98.1583861,0.248999297 C93.8539802,-0.632371483 89.4087735,0.861531532 86.4972325,4.16796953 L34,71.8835812" id="Path"></path>
                <path d="M1.40277381,109.982149 C0.522233985,109.568371 -0.0276820011,108.679348 0.00107569004,107.71609 C0.0298333812,106.752833 0.631829248,105.897406 1.53552186,105.535666 C13.2419328,100.851066 9.47090498,87.6622622 12.9469371,80.6110633 C17.2039121,72.1356168 27.5603238,68.6131203 36.1925948,72.7045846 C62.3292098,85.3005236 31.2170014,124.006795 1.40277381,109.982149 Z" id="Path"></path>
            </g>
        </g>
    </g>
</svg>