<svg width="48" height="48" viewBox="0 0 48 48" fill="none" xmlns="http://www.w3.org/2000/svg">
<path d="M21.072 23.1358L26.432 40.9978C26.5144 41.273 26.6668 41.5222 26.8743 41.7209C27.0818 41.9196 27.3373 42.061 27.6159 42.1313C27.8944 42.2017 28.1865 42.1985 28.4634 42.1222C28.7404 42.0458 28.9928 41.8989 29.196 41.6958L31.926 38.9658L38.97 46.0098C39.1241 46.164 39.3072 46.2863 39.5086 46.3698C39.71 46.4532 39.926 46.4962 40.144 46.4962C40.362 46.4962 40.5779 46.4532 40.7794 46.3698C40.9808 46.2863 41.1638 46.164 41.318 46.0098L46.014 41.3138C46.1682 41.1596 46.2905 40.9766 46.374 40.7752C46.4574 40.5737 46.5004 40.3578 46.5004 40.1398C46.5004 39.9217 46.4574 39.7058 46.374 39.5044C46.2905 39.3029 46.1682 39.1199 46.014 38.9658L38.97 31.9218L41.7 29.1998C41.9031 28.9967 42.0501 28.7445 42.1266 28.4676C42.2031 28.1908 42.2064 27.8988 42.1363 27.6203C42.0662 27.3418 41.925 27.0862 41.7265 26.8786C41.528 26.671 41.2791 26.5184 41.004 26.4358L23.14 21.0758C22.8536 20.9908 22.5496 20.9845 22.26 21.0577C21.9704 21.1309 21.7058 21.2808 21.4942 21.4916C21.2826 21.7024 21.1317 21.9664 21.0574 22.2557C20.9831 22.5451 20.9881 22.8491 21.072 23.1358V23.1358Z" stroke="black" stroke-width="1.5" stroke-linecap="round" stroke-linejoin="round"/>
<path d="M43.4459 20.9998C43.1592 16.9841 41.7243 13.1356 39.3121 9.91243C36.8998 6.6893 33.612 4.22748 29.8401 2.82019C26.0682 1.41291 21.9713 1.11947 18.0374 1.97485C14.1035 2.83022 10.4983 4.79835 7.65135 7.6448C4.80439 10.4913 2.83563 14.0961 1.97955 18.0298C1.12348 21.9636 1.41618 26.0606 2.82279 29.8327C4.2294 33.6048 6.69064 36.8931 9.91334 39.3059C13.136 41.7187 16.9844 43.1543 20.9999 43.4418" stroke="black" stroke-width="1.5" stroke-linecap="round" stroke-linejoin="round"/>
<path d="M33.6261 18C32.8832 16.1626 31.6968 14.5378 30.1728 13.2707C28.6488 12.0037 26.8348 11.1338 24.8927 10.7388C22.9505 10.3438 20.9408 10.436 19.043 11.0071C17.1452 11.5782 15.4184 12.6105 14.0168 14.0117C12.6152 15.4129 11.5825 17.1395 11.0109 19.0371C10.4393 20.9348 10.3466 22.9445 10.7411 24.8867C11.1356 26.829 12.005 28.6432 13.2717 30.1675C14.5384 31.6918 16.1629 32.8786 18.0001 33.622" stroke="black" stroke-width="1.5" stroke-linecap="round" stroke-linejoin="round"/>
</svg>
