<svg width="49" height="49" viewBox="0 0 49 49" fill="none" xmlns="http://www.w3.org/2000/svg">
<path d="M10.7188 29.0896V38.2771H1.53125" stroke="black" stroke-width="1.5" stroke-linecap="round" stroke-linejoin="round"/>
<path d="M38.2812 19.9021V10.7146H47.4688" stroke="black" stroke-width="1.5" stroke-linecap="round" stroke-linejoin="round"/>
<path d="M38.857 10.7087C42.025 14.0092 43.9598 18.3001 44.3359 22.8595C44.7119 27.4189 43.5064 31.9687 40.922 35.7437C38.3376 39.5187 34.532 42.2886 30.1454 43.5874C25.7587 44.8862 21.0586 44.6347 16.8356 42.8752" stroke="black" stroke-width="1.5" stroke-linecap="round" stroke-linejoin="round"/>
<path d="M10.1409 38.2831C6.97971 34.981 5.05101 30.6917 4.67863 26.1355C4.30625 21.5794 5.51286 17.0338 8.09586 13.2622C10.6789 9.4905 14.4809 6.72244 18.8636 5.42278C23.2464 4.12313 27.9428 4.37103 32.1643 6.12485" stroke="black" stroke-width="1.5" stroke-linecap="round" stroke-linejoin="round"/>
<path d="M29.5 16.75H23.8C22.9248 16.75 22.0854 17.0977 21.4665 17.7165C20.8477 18.3354 20.5 19.1748 20.5 20.05C20.5 25 29.5 25 29.5 29.95C29.5 30.8252 29.1523 31.6646 28.5335 32.2835C27.9146 32.9023 27.0752 33.25 26.2 33.25H20.5" stroke="black" stroke-width="1.5" stroke-linecap="round" stroke-linejoin="round"/>
<path d="M25 16.75V13.75" stroke="black" stroke-width="1.5" stroke-linecap="round" stroke-linejoin="round"/>
<path d="M25 33.25V36.25" stroke="black" stroke-width="1.5" stroke-linecap="round" stroke-linejoin="round"/>
</svg>
