<svg width="55" height="43" viewBox="0 0 55 43" fill="none" xmlns="http://www.w3.org/2000/svg">
<path d="M39.2476 10.1492C39.2476 10.1492 35.7767 12.5529 34.4418 13.6212" stroke="black" stroke-miterlimit="10" stroke-linecap="round" stroke-linejoin="round"/>
<path d="M31.5048 16.2919C31.5048 16.2919 28.3009 19.2298 27.2329 20.2981" stroke="black" stroke-miterlimit="10" stroke-linecap="round" stroke-linejoin="round"/>
<path d="M24.8302 23.5032C24.8302 23.5032 22.8 26 21.0923 28.0435" stroke="black" stroke-miterlimit="10" stroke-linecap="round" stroke-linejoin="round"/>
<path d="M18.9563 31.2484C18.9563 31.2484 16.5 35 15.7524 36.323" stroke="black" stroke-miterlimit="10" stroke-linecap="round" stroke-linejoin="round"/>
<path d="M9.0777 29.1118C9.0777 29.1118 12.2816 32.0497 13.3495 33.3851" stroke="black" stroke-miterlimit="10" stroke-linecap="round" stroke-linejoin="round"/>
<path d="M1.33496 23.236C1.33496 23.236 5.16505 25.9317 6.5 27" stroke="black" stroke-miterlimit="10" stroke-linecap="round" stroke-linejoin="round"/>
<path d="M16.2864 43C20.1202 43 23.2282 42.0434 23.2282 40.8633C23.2282 39.6833 20.1202 38.7267 16.2864 38.7267C12.4526 38.7267 9.34467 39.6833 9.34467 40.8633C9.34467 42.0434 12.4526 43 16.2864 43Z" fill="black"/>
<path d="M48.5924 11.4845C51.394 11.4845 53.6652 9.21257 53.6652 6.40998C53.6652 3.6074 51.394 1.33545 48.5924 1.33545C45.7907 1.33545 43.5195 3.6074 43.5195 6.40998C43.5195 9.21257 45.7907 11.4845 48.5924 11.4845Z" stroke="black" stroke-width="1.5" stroke-miterlimit="10"/>
</svg>
