<svg width="56" height="56" viewBox="0 0 56 56" fill="none" xmlns="http://www.w3.org/2000/svg">
<path d="M8.74768 21.0001C8.74766 17.3494 9.78573 13.774 11.7408 10.691C13.6958 7.60795 16.4873 5.14441 19.7894 3.58775C23.0916 2.03109 26.7683 1.44551 30.3906 1.89932C34.013 2.35313 37.4316 3.82762 40.2477 6.15077" stroke="black" stroke-width="1.5" stroke-linecap="round" stroke-linejoin="round"/>
<path d="M45.9363 14C46.8061 16.2312 47.2508 18.6053 47.2477 21V35C47.2477 40.105 45.2199 45.001 41.6103 48.611C38.0007 52.221 33.105 54.2494 28 54.25C26.8261 54.2501 25.6547 54.1438 24.5 53.9327" stroke="black" stroke-width="1.5" stroke-linecap="round" stroke-linejoin="round"/>
<path d="M15.7523 49.8517C13.5607 48.0471 11.7963 45.7792 10.586 43.2112C9.37559 40.6432 8.74937 37.8389 8.75233 35V29.75" stroke="black" stroke-width="1.5" stroke-linecap="round" stroke-linejoin="round"/>
<path d="M36.7477 35V21C36.7477 19.375 36.2952 17.7821 35.4409 16.3999C34.5866 15.0176 33.3642 13.9005 31.9108 13.1738C30.4574 12.4471 28.8303 12.1394 27.2119 12.2854C25.5935 12.4313 24.0477 13.025 22.7477 14" stroke="black" stroke-width="1.5" stroke-linecap="round" stroke-linejoin="round"/>
<path d="M19.2477 21V35C19.2489 36.4527 19.6115 37.8824 20.3028 39.1601C20.9941 40.4378 21.9925 41.5234 23.2079 42.3192C24.4233 43.115 25.8176 43.5958 27.2651 43.7185C28.7127 43.8412 30.168 43.6019 31.5 43.022" stroke="black" stroke-width="1.5" stroke-linecap="round" stroke-linejoin="round"/>
<path d="M27.9977 22.75V33.25" stroke="black" stroke-width="1.5" stroke-linecap="round" stroke-linejoin="round"/>
</svg>
