<svg width="58" height="58" viewBox="0 0 58 58" fill="none" xmlns="http://www.w3.org/2000/svg">
<path d="M38.0625 23.5601L28.4418 36.3877C28.2859 36.5953 28.0872 36.7669 27.8593 36.8911C27.6313 37.0152 27.3794 37.089 27.1204 37.1073C26.8615 37.1256 26.6017 37.0881 26.3585 36.9973C26.1153 36.9065 25.8945 36.7646 25.7109 36.5811L19.9375 30.8101" stroke="black" stroke-width="1.5" stroke-linecap="round" stroke-linejoin="round"/>
<path d="M25.9308 3.27899C26.2999 2.82013 26.7673 2.44989 27.2984 2.19551C27.8296 1.94113 28.411 1.80908 28.9999 1.80908C29.5889 1.80908 30.1703 1.94113 30.7014 2.19551C31.2326 2.44989 31.6999 2.82013 32.0691 3.27899L35.7231 7.82474C36.1369 8.34046 36.674 8.74363 37.2847 8.99705C37.8955 9.25047 38.5602 9.34597 39.2176 9.27474L45.0176 8.64399C45.6047 8.57876 46.199 8.64643 46.7565 8.84198C47.3139 9.03752 47.8202 9.35594 48.2379 9.77366C48.6556 10.1914 48.9741 10.6977 49.1696 11.2551C49.3652 11.8126 49.4328 12.4069 49.3676 12.994L48.7368 18.794C48.6656 19.4514 48.7611 20.1161 49.0145 20.7268C49.268 21.3376 49.6711 21.8747 50.1868 22.2885L54.7326 25.9425C55.1915 26.3117 55.5617 26.779 55.8161 27.3102C56.0705 27.8413 56.2025 28.4227 56.2025 29.0117C56.2025 29.6006 56.0705 30.182 55.8161 30.7132C55.5617 31.2443 55.1915 31.7117 54.7326 32.0808L50.1723 35.7179C49.6568 36.1324 49.2538 36.6699 49.0004 37.281C48.747 37.8921 48.6514 38.5571 48.7223 39.2148L49.3531 45.0148C49.4188 45.602 49.3514 46.1965 49.1561 46.7542C48.9607 47.3118 48.6423 47.8184 48.2245 48.2362C47.8066 48.654 47.3001 48.9724 46.7425 49.1678C46.1848 49.3632 45.5903 49.4305 45.0031 49.3648L39.2031 48.7341C38.5457 48.6626 37.8809 48.758 37.2701 49.0114C36.6593 49.2649 36.1223 49.6682 35.7086 50.1841L32.0691 54.7129C31.7002 55.1722 31.2329 55.5428 30.7017 55.7974C30.1706 56.0521 29.589 56.1842 28.9999 56.1842C28.4109 56.1842 27.8293 56.0521 27.2981 55.7974C26.7669 55.5428 26.2997 55.1722 25.9308 54.7129L22.2792 50.1696C21.8648 49.6538 21.3273 49.2507 20.7162 48.9973C20.1051 48.7439 19.44 48.6484 18.7823 48.7196L12.9823 49.3503C12.3949 49.4165 11.8003 49.3495 11.2424 49.1542C10.6845 48.959 10.1778 48.6406 9.75988 48.2227C9.34196 47.8048 9.02356 47.2981 8.82834 46.7402C8.63313 46.1823 8.56611 45.5876 8.63227 45.0003L9.26302 39.2003C9.33422 38.5426 9.23871 37.8775 8.98531 37.2664C8.73191 36.6553 8.32876 36.1178 7.81302 35.7034L3.26969 32.0518C2.81044 31.6829 2.43983 31.2157 2.18518 30.6845C1.93054 30.1533 1.79834 29.5717 1.79834 28.9827C1.79834 28.3936 1.93054 27.812 2.18518 27.2808C2.43983 26.7497 2.81044 26.2824 3.26969 25.9135L7.81302 22.2595C8.32891 21.8458 8.73221 21.3088 8.98564 20.698C9.23908 20.0872 9.33447 19.4224 9.26302 18.765L8.63227 12.965C8.56658 12.3778 8.63392 11.7833 8.8293 11.2256C9.02468 10.668 9.34309 10.1615 9.76091 9.74363C10.1787 9.32581 10.6853 9.0074 11.2429 8.81202C11.8006 8.61664 12.395 8.5493 12.9823 8.61499L18.7823 9.24574C19.44 9.31671 20.105 9.2211 20.7161 8.96772C21.3272 8.71433 21.8647 8.31131 22.2792 7.79574L25.9308 3.27899Z" stroke="black" stroke-width="1.5" stroke-linecap="round" stroke-linejoin="round"/>
</svg>
