<svg width="108" height="18" viewBox="0 0 108 18" fill="none" xmlns="http://www.w3.org/2000/svg">
<path fill-rule="evenodd" clip-rule="evenodd" d="M8.90323 13.3548L3.67004 16.1061L4.66949 10.2788L0.435755 6.15198L6.28663 5.3018L8.90323 0L11.5198 5.3018L17.3707 6.15198L13.137 10.2788L14.1364 16.1061L8.90323 13.3548Z" fill="#EDD99F"/>
<path fill-rule="evenodd" clip-rule="evenodd" d="M31.4516 13.3548L26.2184 16.1061L27.2179 10.2788L22.9842 6.15198L28.835 5.3018L31.4516 0L34.0682 5.3018L39.9191 6.15198L35.6854 10.2788L36.6848 16.1061L31.4516 13.3548Z" fill="#EDD99F"/>
<path fill-rule="evenodd" clip-rule="evenodd" d="M54 13.3548L48.7668 16.1061L49.7663 10.2788L45.5326 6.15198L51.3834 5.3018L54 0L56.6166 5.3018L62.4675 6.15198L58.2338 10.2788L59.2332 16.1061L54 13.3548Z" fill="#EDD99F"/>
<path fill-rule="evenodd" clip-rule="evenodd" d="M76.5484 13.3548L71.3152 16.1061L72.3146 10.2788L68.0809 6.15198L73.9318 5.3018L76.5484 0L79.165 5.3018L85.0158 6.15198L80.7821 10.2788L81.7816 16.1061L76.5484 13.3548Z" fill="#EDD99F"/>
<path fill-rule="evenodd" clip-rule="evenodd" d="M98.9032 13.3548L93.67 16.1061L94.6695 10.2788L90.4358 6.15198L96.2866 5.3018L98.9032 0L101.52 5.3018L107.371 6.15198L103.137 10.2788L104.136 16.1061L98.9032 13.3548Z" fill="#EDD99F"/>
</svg>
